<svg width="163" height="29" viewBox="0 0 163 29" fill="none" xmlns="http://www.w3.org/2000/svg">
  <path d="M128.288 9.55761H128.268L128.318 10.8626V13.1431H127.411L127.401 8.125H128.454L130.607 11.7204L132.761 8.125H133.813L133.803 13.1431H132.897V10.8626L132.946 9.55761H132.926L130.627 13.2796H130.588L128.288 9.55761Z" fill="currentColor" />
  <path d="M135.173 10.6388C135.173 9.07956 136.274 7.98828 137.911 7.98828C139.549 7.98828 140.512 9.04988 140.494 10.6873L136.196 11.3017C136.42 12.0427 137.034 12.4612 138.096 12.4612C138.788 12.4612 139.451 12.3059 140.123 12.0714V12.9094C139.528 13.1439 138.934 13.2804 138.087 13.2804C136.264 13.2804 135.173 12.1595 135.173 10.6398M139.559 10.1026C139.461 9.27447 138.906 8.81639 137.911 8.81639C136.732 8.81639 136.119 9.44958 136.109 10.5893L139.559 10.1016V10.1026Z" fill="currentColor" />
  <path d="M141.095 12.3249H141.728C141.971 11.8767 142.108 11.3316 142.108 10.4926V8.125H146.571V12.3249H147.302V14.4105H146.396V13.1431H142.001V14.4105H141.095V12.3249ZM145.665 12.3249V8.9531H143.014V10.5025C143.014 11.3207 142.887 11.8668 142.693 12.3249H145.665Z" fill="currentColor" />
  <path d="M148.353 8.125H149.259V10.7162L149.239 12.0221H149.259L152.494 8.125H153.469V13.1431H152.562V10.5608L152.581 9.25486H152.562L149.327 13.1431H148.353V8.125Z" fill="currentColor" />
  <path d="M154.83 11.6915C154.83 10.6873 155.6 10.1026 156.916 10.1026H158.768C158.768 9.26457 158.251 8.81639 157.287 8.81639C156.672 8.81639 155.952 9.0014 155.191 9.35262V8.45625C155.991 8.1446 156.732 7.98828 157.384 7.98828C158.815 7.98828 159.674 8.7778 159.674 10.1906V13.1439H158.768L158.865 11.74H158.845C158.543 12.7145 157.744 13.2804 156.682 13.2804C155.551 13.2804 154.83 12.666 154.83 11.6925M158.767 10.9406V10.8139H156.886C156.155 10.8139 155.765 11.0969 155.765 11.6331C155.765 12.1694 156.145 12.4612 156.827 12.4612C157.86 12.4612 158.766 11.7598 158.766 10.9406" fill="currentColor" />
  <path d="M127.401 16.2969H131.065V17.125H128.308V21.315H127.401V16.2969Z" fill="currentColor" />
  <path d="M132.299 16.2967H133.205L133.097 17.6996H133.117C133.419 16.7449 134.277 16.1602 135.378 16.1602C136.869 16.1602 137.912 17.2415 137.912 18.781C137.912 20.3205 136.742 21.4513 135.056 21.4513C134.335 21.4513 133.76 21.2465 133.205 20.7884V23.2629H132.299V16.2957V16.2967ZM136.977 18.8107C136.977 17.661 136.285 16.9883 135.096 16.9883C133.907 16.9883 133.206 17.661 133.206 18.8107C133.206 19.9603 133.908 20.6331 135.087 20.6331C136.266 20.6331 136.977 19.9514 136.977 18.8107Z" fill="currentColor" />
  <path d="M138.904 23.177V22.3389C139.4 22.5141 139.644 22.5833 140.043 22.5833C140.492 22.5833 140.775 22.3389 140.93 21.8136L141.038 21.4535L138.504 16.2988H139.46L141.476 20.3622L143.142 16.2988H144.078L141.984 21.3169C141.409 22.6912 141.243 23.4025 140.073 23.4025C139.635 23.4025 139.342 23.3244 138.904 23.1779" fill="currentColor" />
  <path d="M149.182 17.125H146.045V21.315H145.138V16.2969H150.089V21.315H149.182V17.125Z" fill="currentColor" />
  <path d="M155.805 17.125H152.668V21.315H151.761V16.2969H156.712V21.315H155.805V17.125Z" fill="currentColor" />
  <path d="M158.073 19.8634C158.073 18.8592 158.843 18.2744 160.159 18.2744H162.011C162.011 17.4364 161.494 16.9883 160.53 16.9883C159.915 16.9883 159.195 17.1733 158.434 17.5245V16.6281C159.234 16.3165 159.974 16.1602 160.627 16.1602C162.059 16.1602 162.916 16.9497 162.916 18.3625V21.3158H162.01L162.107 19.9129H162.088C161.786 20.8874 160.987 21.4523 159.925 21.4523C158.794 21.4523 158.073 20.8379 158.073 19.8644M162.011 19.1124V18.9858H160.13C159.4 18.9858 159.009 19.2688 159.009 19.805C159.009 20.3412 159.389 20.6331 160.071 20.6331C161.104 20.6331 162.01 19.9316 162.01 19.1124" fill="currentColor" />
  <path d="M38.7178 14.7743C38.7178 12.0635 40.4057 10.5032 43.5262 10.5032C44.9331 10.5032 46.2628 10.708 47.6697 11.0652V8.30285C46.2885 7.9447 45.035 7.76562 43.5262 7.76562C38.6674 7.76562 35.5469 10.6556 35.5469 14.7476C35.5469 18.8397 38.6931 21.7039 43.2966 21.7039C44.9588 21.7039 46.5962 21.4744 47.7468 21.1162V18.3539C46.5447 18.7368 45.0617 18.9673 43.5014 18.9673C40.4324 18.9673 38.7188 17.3309 38.7188 14.7734L38.7178 14.7743Z" fill="currentColor" />
  <path d="M81.0452 7.76562C76.6208 7.76562 73.7051 10.5784 73.7051 14.7219C73.7051 18.8654 76.6208 21.7039 81.6082 21.7039C83.8333 21.7039 85.445 21.3467 87.1071 20.7066V18.0472C85.3421 18.6873 83.578 19.0702 81.813 19.0702C79.1783 19.0702 77.6705 18.0986 77.1075 16.3593L88.0797 14.8505C88.0797 10.5032 85.5736 7.76562 81.0462 7.76562H81.0452ZM76.876 14.5943C76.9017 11.8834 78.3344 10.3993 81.1214 10.3993C83.4741 10.3993 84.7781 11.4481 85.0087 13.4684L76.875 14.5933L76.876 14.5943Z" fill="currentColor" />
  <path d="M114.51 7.76662C112.721 7.76662 110.699 8.15049 108.526 8.94298V11.7558C110.52 10.8614 112.362 10.3746 113.999 10.3746C116.403 10.3746 117.681 11.4491 117.707 13.4436H113.026C109.573 13.4436 107.604 14.9524 107.604 17.5871C107.604 20.2218 109.42 21.7039 112.336 21.7039C115.251 21.7039 117.194 20.1951 117.988 17.51H118.039L117.707 21.3467H120.802V13.597C120.802 9.81165 118.499 7.76562 114.51 7.76562V7.76662ZM117.708 15.5668C117.708 17.5109 115.585 19.1226 113.181 19.1226C111.569 19.1226 110.674 18.4578 110.674 17.1785C110.674 15.8993 111.595 15.2087 113.308 15.2087H117.707V15.5668H117.708Z" fill="currentColor" />
  <path d="M104.947 12.3272C104.646 11.4773 104.13 10.6808 103.493 10.0566C102.856 9.43028 102.123 8.96132 101.382 8.62098C100.639 8.27371 99.8839 8.04615 99.1349 7.88389C98.386 7.72658 97.6429 7.63358 96.9078 7.58411C96.1707 7.53365 95.4554 7.53761 94.7065 7.57718C93.2313 7.66722 91.8135 7.92545 90.4363 8.27964C90.1623 8.35187 89.8922 8.43101 89.6211 8.51214L90.1563 11.3754C90.4799 11.2923 90.8044 11.2141 91.1299 11.1449C92.3725 10.8698 93.6251 10.6789 94.845 10.6413C95.4426 10.6264 96.0768 10.6442 96.6842 10.6917C97.2937 10.7422 97.8893 10.8273 98.4582 10.9559C99.591 11.2131 100.618 11.6613 101.261 12.3103C101.583 12.6329 101.823 12.992 101.974 13.4135C102.131 13.828 102.202 14.3188 102.195 14.8263C102.193 15.7989 101.818 16.6507 101.124 17.3393C100.431 18.0309 99.4109 18.5028 98.3058 18.7413C97.4272 18.9372 96.4913 18.9827 95.5445 18.9184C95.7305 17.5511 95.8274 16.155 95.8274 14.7373C95.8274 13.8152 95.7849 12.903 95.7057 12.0017L92.5229 12.434C92.5853 13.1939 92.6189 13.9616 92.6189 14.7373C92.6189 18.8867 91.7027 22.8264 90.0643 26.3654L92.9691 27.7268C93.8596 25.8054 94.5581 23.7782 95.0419 21.6698C96.2855 21.8509 97.5747 21.8568 98.8688 21.6421C100.395 21.3592 101.964 20.7487 103.238 19.5733C103.551 19.2775 103.848 18.957 104.107 18.6008C104.363 18.2416 104.591 17.8588 104.773 17.4521C105.137 16.6389 105.327 15.7514 105.345 14.8896C105.354 14.4622 105.333 14.0487 105.267 13.6153C105.205 13.1869 105.102 12.7526 104.945 12.3301L104.947 12.3272Z" fill="currentColor" />
  <path d="M71.4166 13.2218C71.382 13.0536 71.3464 12.8864 71.2811 12.7212C71.1633 12.3907 71.0515 12.0583 70.8695 11.7546C70.7844 11.6012 70.7043 11.4429 70.6083 11.2965L70.2957 10.879L70.1354 10.6732C70.081 10.6059 70.0186 10.5495 69.9593 10.4882L69.5981 10.129C69.3518 9.89949 69.0837 9.71448 68.8235 9.51165C68.5524 9.34742 68.2823 9.17032 68.0043 9.02686C67.7253 8.89924 67.4472 8.75478 67.1663 8.64694C66.0542 8.21162 64.9471 7.9623 63.8509 7.82774C63.5917 8.77754 63.3879 9.74119 63.2375 10.7157C63.284 10.7236 63.3315 10.7296 63.378 10.7375C64.308 10.8889 65.2004 11.1293 65.982 11.4746C66.1799 11.5577 66.354 11.6645 66.542 11.7536C66.7171 11.8555 66.8754 11.9673 67.0456 12.0682C67.1831 12.1919 67.3444 12.2977 67.471 12.4244L67.653 12.6153C67.6827 12.647 67.7183 12.6757 67.7431 12.7103L67.8143 12.8142C68.215 13.3504 68.4238 13.9678 68.4238 14.7256C68.4188 15.4835 68.217 16.1029 67.8113 16.6351L67.7401 16.739C67.7154 16.7737 67.6797 16.8014 67.6501 16.834L67.468 17.025C67.3424 17.1506 67.1811 17.2575 67.0436 17.3811C66.8734 17.482 66.7151 17.5948 66.539 17.6938C66.35 17.7818 66.1769 17.8897 65.98 17.9728C65.1994 18.3181 64.308 18.5624 63.378 18.7108C62.8556 18.8058 62.3203 18.8691 61.7791 18.9186C61.5724 17.5543 61.4625 16.1593 61.4625 14.7375C61.4625 10.5881 62.3787 6.64841 64.0171 3.10943L61.1123 1.74805C60.2367 3.63577 59.5481 5.62639 59.0653 7.69517C57.3547 7.73177 55.6074 7.95537 53.8483 8.64299C53.5673 8.75083 53.2883 8.89428 53.0093 9.0229C52.7333 9.16933 52.4622 9.34544 52.1911 9.50968C51.9309 9.7125 51.6628 9.89751 51.4164 10.127L51.0553 10.4862C50.9969 10.5485 50.9336 10.6039 50.8792 10.6722L50.7189 10.878L50.4073 11.2975C50.3133 11.4449 50.2322 11.6022 50.1471 11.7556C49.964 12.0593 49.8532 12.3917 49.7345 12.7222C49.6682 12.8864 49.6326 13.0546 49.599 13.2228L49.4971 13.7284C49.4515 14.0628 49.4407 14.3932 49.4229 14.7266C49.4436 15.0601 49.4545 15.3905 49.499 15.7249L49.6009 16.2305C49.6356 16.3987 49.6712 16.5659 49.7365 16.7311C49.8542 17.0616 49.966 17.394 50.1481 17.6977C50.2331 17.8511 50.3133 18.0094 50.4093 18.1558L50.7219 18.5733L50.8822 18.7791C50.9366 18.8464 50.9989 18.9028 51.0583 18.9641L51.4194 19.3233C51.6658 19.5528 51.9339 19.7378 52.1941 19.9406C52.4652 20.1049 52.7353 20.282 53.0133 20.4254C53.2923 20.5531 53.5703 20.6975 53.8513 20.8053C55.085 21.2891 56.3138 21.5424 57.5288 21.6641C57.3082 20.653 57.138 19.629 57.0163 18.5961C56.3128 18.4477 55.6411 18.2439 55.0356 17.9767C54.8377 17.8936 54.6636 17.7868 54.4756 17.6977C54.3005 17.5958 54.1422 17.484 53.972 17.3831C53.8345 17.2594 53.6732 17.1536 53.5466 17.0269L53.3645 16.836C53.3348 16.8043 53.2992 16.7756 53.2745 16.741L53.2032 16.6371C52.8025 16.1009 52.5938 15.4835 52.5938 14.7256C52.5987 13.9678 52.8006 13.3484 53.2062 12.8162L53.2774 12.7123C53.3022 12.6777 53.3378 12.6499 53.3675 12.6173L53.5495 12.4263C53.6752 12.3007 53.8364 12.1938 53.974 12.0702C54.1441 11.9693 54.3024 11.8565 54.4785 11.7575C54.6675 11.6695 54.8407 11.5616 55.0375 11.4785C55.8182 11.1332 56.7096 10.8889 57.6396 10.7405C57.9334 10.687 58.2312 10.6455 58.531 10.6089C58.35 11.9584 58.255 13.3356 58.255 14.7336C58.255 19.3698 59.28 23.7695 61.1133 27.723L64.0181 26.3617C63.3354 24.8875 62.7804 23.3421 62.3629 21.7423C63.9429 21.679 65.5516 21.4405 67.1702 20.8073C67.4512 20.6995 67.7302 20.556 68.0092 20.4274C68.2852 20.281 68.5563 20.1049 68.8274 19.9406C69.0876 19.7378 69.3557 19.5528 69.6021 19.3233L69.9632 18.9641C70.0216 18.9018 70.0849 18.8464 70.1393 18.7781L70.2996 18.5723L70.6113 18.1528C70.7052 18.0054 70.7864 17.8481 70.8715 17.6948C71.0545 17.391 71.1653 17.0586 71.284 16.7281C71.3503 16.5639 71.3859 16.3957 71.4196 16.2275L71.5225 15.7219C71.567 15.3875 71.5789 15.0571 71.5967 14.7237C71.5759 14.3903 71.565 14.0598 71.5205 13.7254L71.4186 13.2198L71.4166 13.2218Z" fill="currentColor" />
  <path d="M20.7272 15.6704C20.7133 15.3201 20.6955 14.9689 20.6688 14.6187C20.6461 14.2674 20.6154 13.9172 20.5808 13.567C20.5056 12.8665 20.4056 12.17 20.2919 11.4744C20.1721 10.7799 20.0218 10.0923 19.8585 9.40666C19.5172 8.04132 19.0799 6.69776 18.508 5.41454C18.4368 5.25426 18.3596 5.09695 18.2854 4.93766C18.2122 4.77837 18.1261 4.62601 18.0499 4.4687C17.8897 4.15705 17.7185 3.85133 17.5365 3.55353C17.1714 2.95891 16.7687 2.38508 16.3007 1.87159L16.1226 1.68164L16.0336 1.58665L15.9396 1.49761L15.7506 1.31853C15.6863 1.26016 15.62 1.20575 15.5538 1.14935C15.4241 1.03162 15.2827 0.934655 15.1442 0.829782C15.0749 0.776355 14.9997 0.735791 14.9275 0.687312C14.8543 0.6418 14.783 0.589364 14.7059 0.551768L14.4763 0.428096C14.3992 0.387532 14.318 0.357855 14.2379 0.321248L14.1172 0.267818C14.0766 0.251988 14.0351 0.239126 13.9935 0.224286C13.9104 0.196583 13.8273 0.165916 13.7432 0.141182C13.7402 0.141182 13.7363 0.1392 13.7333 0.138211C13.1624 -0.0181101 12.5629 -0.0398773 11.9791 0.0630175C4.60733 1.35514 -0.580944 8.08189 0.0522552 15.5507C0.0997451 16.1077 0.273875 16.6469 0.548921 17.1337L0.553867 17.1426C0.598388 17.2188 0.648847 17.292 0.696337 17.3662L0.76856 17.476L0.84969 17.5799C0.904105 17.6491 0.954564 17.7194 1.01096 17.7857L1.18806 17.9786C1.24346 18.0449 1.31173 18.1013 1.37406 18.1616C1.43837 18.22 1.49674 18.2833 1.56501 18.3387C1.70154 18.4485 1.82917 18.5633 1.9756 18.6603L2.18732 18.8107L2.40795 18.9501C2.55141 19.0471 2.70971 19.1243 2.85911 19.2113C3.47153 19.5428 4.12748 19.7941 4.79531 20.0038C5.12972 20.1087 5.46808 20.1997 5.81041 20.2799C5.98256 20.3165 6.15174 20.361 6.32488 20.3946C6.49802 20.4273 6.66918 20.4639 6.84232 20.4936C8.22942 20.734 9.64225 20.829 11.0531 20.823C11.7595 20.8121 12.4649 20.7894 13.1684 20.733C13.8718 20.6707 14.5733 20.5955 15.2718 20.4946C15.621 20.4411 15.9683 20.3838 16.3146 20.3194C16.6618 20.2591 17.0062 20.1888 17.3505 20.1146C18.0371 19.9643 18.7168 19.7862 19.3886 19.5883C19.8081 19.4656 20.2216 19.3281 20.6322 19.1817C20.6767 18.7127 20.7094 18.2418 20.7252 17.7688C20.749 17.0713 20.7519 16.3709 20.7272 15.6694V15.6704Z" fill="currentColor" />
  <path d="M17.7907 2.08982C17.9431 2.2026 18.0905 2.32133 18.2369 2.44203C18.3764 2.56768 18.5209 2.69135 18.6574 2.82195C18.79 2.95452 18.9305 3.08315 19.0581 3.22067C19.1224 3.28893 19.1867 3.3572 19.2501 3.42744C19.3144 3.4967 19.3767 3.56695 19.4361 3.63917C19.6804 3.92312 19.9139 4.21697 20.1365 4.51773C20.3582 4.8185 20.5649 5.12917 20.7648 5.44379C21.5553 6.70623 22.1737 8.06167 22.6654 9.4547C22.7841 9.80395 22.9038 10.1542 23.0047 10.5094C23.1136 10.8626 23.2056 11.2197 23.2976 11.5769C23.4747 12.2932 23.6181 13.0174 23.7369 13.7456C23.9397 15.0298 24.0465 16.3328 24.0485 17.6437C24.4235 17.4637 24.7925 17.2767 25.1527 17.0788C25.2922 17.0046 25.4237 16.9245 25.5623 16.8483C25.6938 16.7672 25.8314 16.69 25.961 16.6069C26.2241 16.4417 26.4843 16.2725 26.7307 16.0894C27.2274 15.7263 27.6973 15.3276 28.096 14.8488C28.4957 14.3709 28.8499 13.7337 29.0409 13.0105C28.1317 6.06907 22.2231 0.996555 15.3994 0.960938C15.5241 0.985672 15.6487 1.01536 15.7704 1.05097C16.5045 1.26072 17.1803 1.64261 17.7917 2.0908L17.7907 2.08982Z" fill="currentColor" />
  <path d="M18.5019 27.1653C18.8571 26.6568 19.1173 26.1027 19.337 25.5309C19.6961 24.589 19.9444 23.5937 20.1443 22.5756C18.9006 22.8912 17.6382 23.1059 16.3718 23.2276C15.6367 23.2939 14.8996 23.3355 14.1616 23.3434C13.7925 23.3434 13.4235 23.3434 13.0544 23.3256C12.6854 23.3167 12.3164 23.288 11.9483 23.2603C10.4761 23.1317 9.01087 22.8705 7.59112 22.4193C7.41403 22.3629 7.23792 22.2996 7.06181 22.2392C6.8857 22.1779 6.71157 22.1086 6.53843 22.0414C6.19215 21.8999 5.85082 21.7485 5.51443 21.5813C5.43033 21.5417 5.34624 21.4982 5.26412 21.4537C5.18101 21.4101 5.0979 21.3656 5.01677 21.3201C4.85254 21.2301 4.69226 21.1272 4.53099 21.0312C4.3717 20.9313 4.21538 20.8225 4.05906 20.7186C3.9067 20.6048 3.75433 20.494 3.60791 20.3733C3.02319 19.8924 2.48596 19.3344 2.10109 18.6755C2.03085 18.5598 1.96852 18.4401 1.91113 18.3184C3.63957 24.9511 10.0616 29.433 17.0436 28.5504C17.6956 28.1745 18.1467 27.6739 18.5019 27.1643V27.1653Z" fill="currentColor" />
  <path d="M27.6373 18.5522C27.3722 18.8461 27.0892 19.1191 26.7944 19.3744C26.2067 19.8889 25.5715 20.3292 24.9136 20.716C24.5327 20.9376 24.1428 21.1404 23.7471 21.3254C23.666 21.7687 23.5651 22.2099 23.4424 22.6482C23.2306 23.3833 22.9645 24.1095 22.6113 24.808C22.4382 25.1573 22.2423 25.4996 22.0236 25.831C21.8079 26.1635 21.5655 26.4821 21.2994 26.7858C21.0313 27.0866 20.6236 27.5268 20.2754 27.7415C25.0996 25.8934 28.5149 21.4679 29.0769 16.3281C28.9136 16.7931 28.6514 17.2166 28.3803 17.6183C28.1538 17.9507 27.9044 18.2614 27.6373 18.5532V18.5522Z" fill="currentColor" />
</svg>