<svg width="249" height="30" viewBox="0 0 249 30" fill="none" xmlns="http://www.w3.org/2000/svg">
  <path d="M39.3203 14.8672C39.3203 12.1411 41.0166 10.573 44.1539 10.573C45.5609 10.5844 46.9608 10.7745 48.3198 11.1389V8.3625C46.9634 7.99613 45.5642 7.81249 44.1592 7.81647C39.2741 7.81647 36.1367 10.7251 36.1367 14.8355C36.1367 18.8467 39.2992 21.8294 43.9278 21.8294C45.599 21.8294 47.245 21.598 48.4018 21.2397V18.4633C47.0178 18.8821 45.5787 19.0898 44.1328 19.0794C41.043 19.0781 39.3203 17.4334 39.3203 14.8672Z" fill="#0A0D20" />
  <path d="M81.8747 7.81641C77.4272 7.81641 74.4961 10.6457 74.4961 14.8103C74.4961 18.9247 77.4272 21.8293 82.4406 21.8293C84.6776 21.8293 86.2971 21.471 87.9683 20.8272V18.1539C86.194 18.7964 84.4211 19.1812 82.6468 19.1812C80.0026 19.1812 78.4809 18.2055 77.915 16.4563L88.9453 14.9385C88.9453 10.5677 86.4267 7.81641 81.8747 7.81641ZM77.6837 14.6821C77.7101 11.9559 79.1499 10.4646 81.9514 10.4646C84.318 10.4646 85.6282 11.5222 85.8608 13.5503L77.6837 14.6821Z" fill="#0A0D20" />
  <path d="M115.519 7.81641C113.719 7.81641 111.684 8.20246 109.502 9.00629V11.8263C111.507 10.9273 113.36 10.4381 115.004 10.4381C117.421 10.4381 118.706 11.5183 118.733 13.5239H114.027C110.555 13.5239 108.576 15.0403 108.576 17.6898C108.576 20.26 110.402 21.828 113.336 21.828C116.164 21.828 118.221 20.3116 119.021 17.6118H119.072L118.738 21.4684H121.849V13.6773C121.843 9.87359 119.53 7.81641 115.519 7.81641ZM118.733 15.6604C118.733 17.6145 116.599 19.2301 114.182 19.2301C112.562 19.2301 111.662 18.569 111.662 17.276C111.662 15.9645 112.587 15.2929 114.306 15.2929H118.729L118.733 15.6604Z" fill="#0A0D20" />
  <path d="M105.902 12.4018C105.594 11.5416 105.097 10.7614 104.447 10.1186C103.829 9.51867 103.111 9.03024 102.325 8.67484C101.603 8.34426 100.845 8.09591 100.067 7.93446C99.3293 7.78109 98.5813 7.68036 97.829 7.63302C97.0917 7.58607 96.3522 7.58342 95.6145 7.62509C94.1643 7.72269 92.7267 7.95911 91.3216 8.33109C91.0467 8.40381 90.7743 8.48446 90.502 8.56511L91.0414 11.4433C91.3666 11.36 91.6918 11.2807 92.0197 11.2119C93.2457 10.927 94.4957 10.7574 95.7533 10.7056C96.3708 10.6914 96.9885 10.7081 97.6043 10.7558C98.2041 10.8027 98.8001 10.8911 99.3878 11.0202C100.527 11.2847 101.56 11.7302 102.206 12.382C102.525 12.6934 102.77 13.0719 102.924 13.4899C103.085 13.9455 103.16 14.427 103.145 14.9099C103.146 15.3819 103.052 15.8493 102.867 16.2837C102.682 16.718 102.41 17.1102 102.069 17.4364C101.372 18.1318 100.35 18.6064 99.2357 18.8457C98.3236 19.0382 97.3886 19.0983 96.4593 19.0242C96.6484 17.6312 96.7434 16.227 96.7436 14.8213C96.7436 13.8958 96.6999 12.9769 96.6206 12.0713L93.4211 12.505C93.4846 13.2691 93.5168 14.0412 93.5177 14.8213C93.5216 18.8582 92.6454 22.8475 90.9501 26.5113L93.8707 27.8809C94.7749 25.929 95.4732 23.8881 95.9543 21.7914C97.2304 21.9816 98.5283 21.9723 99.8016 21.7636C101.337 21.4794 102.912 20.8659 104.194 19.6839C104.515 19.3858 104.808 19.0583 105.069 18.7056C105.857 17.6192 106.291 16.3165 106.313 14.9746C106.324 14.5461 106.298 14.1175 106.235 13.6935C106.169 13.2526 106.057 12.8197 105.902 12.4018Z" fill="#0A0D20" />
  <path d="M72.1888 13.3022C72.16 13.1311 72.1158 12.963 72.0566 12.7998C71.9511 12.463 71.8125 12.1375 71.6427 11.8281C71.5568 11.6734 71.4762 11.5148 71.3783 11.368L71.0637 10.9476L70.9037 10.74C70.8495 10.6726 70.786 10.6157 70.7265 10.5536L70.3643 10.1927C70.117 9.96131 69.8473 9.77489 69.5856 9.57129C69.3132 9.40602 69.0409 9.22886 68.7619 9.08476C68.4829 8.94065 68.2013 8.81108 67.9197 8.70267C66.8482 8.28757 65.7282 8.01079 64.5867 7.879C64.3263 8.83605 64.1206 9.80716 63.9706 10.7876L64.1121 10.8088C65.0124 10.9448 65.892 11.194 66.7298 11.5505C66.9281 11.6351 67.1027 11.7408 67.2917 11.8321C67.4808 11.9233 67.6275 12.0463 67.7994 12.1481C67.9316 12.2723 68.0995 12.3794 68.2264 12.5063L68.4102 12.6981C68.4425 12.7275 68.4726 12.7593 68.5001 12.7932L68.5728 12.8964C68.9732 13.4569 69.1884 14.1285 69.1884 14.8174C69.1884 15.5062 68.9732 16.1778 68.5728 16.7384L68.5014 16.8428C68.4763 16.8772 68.4393 16.905 68.4102 16.938L68.2278 17.1284C68.0955 17.2606 67.9395 17.3624 67.8007 17.4867C67.6288 17.5872 67.4715 17.7009 67.293 17.8013C67.1145 17.9018 66.9295 17.9983 66.7311 18.0816C65.8942 18.4395 65.0149 18.6887 64.1147 18.8233C63.5859 18.9185 63.057 18.9833 62.507 19.0322C62.2956 17.6412 62.1891 16.2363 62.1884 14.8293C62.1844 10.7917 63.0611 6.80192 64.7573 3.13796L61.8354 1.76562C60.9469 3.68293 60.2571 5.68623 59.7769 7.74415C58.0582 7.78117 56.3011 8.00857 54.5322 8.69606C54.2505 8.80447 53.9689 8.94857 53.6887 9.07946C53.4084 9.21035 53.1387 9.40338 52.8663 9.56864C52.6019 9.77224 52.3375 9.96527 52.0876 10.1887L51.724 10.551C51.6645 10.6131 51.6024 10.67 51.5469 10.7374L51.3869 10.9449L51.0735 11.3667C50.9784 11.5135 50.8977 11.6721 50.8091 11.8268C50.6388 12.1359 50.5001 12.4615 50.3953 12.7985C50.3357 12.9619 50.2914 13.1306 50.2631 13.3022L50.16 13.8099C50.115 14.1457 50.1044 14.4789 50.0859 14.8134C50.1071 15.1479 50.1177 15.4745 50.1626 15.8169L50.2657 16.3246C50.2947 16.4961 50.3389 16.6647 50.398 16.8283C50.5034 17.1651 50.642 17.4906 50.8118 17.8C50.8977 17.9534 50.9784 18.1134 51.0762 18.2601L51.3908 18.6805L51.5521 18.8868C51.6063 18.9555 51.6698 19.0111 51.7293 19.0732L52.0916 19.4355C52.3388 19.6655 52.6085 19.8519 52.8703 20.0555C53.1426 20.2208 53.415 20.3993 53.6939 20.5434C53.9729 20.6875 54.2532 20.817 54.5361 20.9255C55.7245 21.382 56.9702 21.6725 58.238 21.7888C58.0159 20.7725 57.844 19.7444 57.7224 18.7043C57.0389 18.5663 56.3716 18.3576 55.7313 18.0816C55.533 17.9983 55.3571 17.8912 55.1681 17.8013C54.979 17.7114 54.8336 17.5858 54.6617 17.484C54.5229 17.3598 54.3616 17.254 54.2347 17.1271L54.0509 16.9354C54.0192 16.9053 53.9892 16.8735 53.961 16.8402L53.8883 16.7357C53.4879 16.1752 53.2727 15.5036 53.2727 14.8147C53.2727 14.1259 53.4879 13.4543 53.8883 12.8937L53.9597 12.7906C53.988 12.7569 54.0185 12.7251 54.0509 12.6954L54.2334 12.5037C54.3656 12.3715 54.5216 12.2697 54.6604 12.1454C54.8309 12.0449 54.9896 11.9312 55.1668 11.8321C55.3439 11.7329 55.5317 11.6351 55.73 11.5505C56.5671 11.193 57.4463 10.9438 58.3464 10.8088C58.6412 10.7559 58.94 10.7136 59.2415 10.6766C59.0577 12.0514 58.9654 13.4369 58.9651 14.824C58.9602 19.3341 59.9407 23.7908 61.8381 27.8823L64.7586 26.514C64.0665 25.02 63.5085 23.4675 63.0914 21.8747C64.6779 21.8113 66.2962 21.5706 67.925 20.9347C68.2066 20.8263 68.4882 20.6822 68.7672 20.5526C69.0461 20.4231 69.3172 20.2287 69.5908 20.0635C69.8553 19.8585 70.1197 19.6668 70.3696 19.4421L70.7331 19.0811C70.7913 19.019 70.8548 18.9621 70.9103 18.8947L71.0703 18.6872L71.3836 18.2654C71.4788 18.1173 71.5594 17.9587 71.648 17.804C71.8184 17.4948 71.957 17.1693 72.0618 16.8322C72.121 16.6687 72.1653 16.5001 72.194 16.3285L72.2959 15.8208C72.3421 15.485 72.3527 15.1519 72.3712 14.8174C72.3501 14.4829 72.3395 14.1497 72.2945 13.8139L72.1888 13.3022Z" fill="#0A0D20" />
  <path d="M133.011 16.0027H130.395V21.4683H127.98V8.12305H130.389V13.8226H132.954C135.803 13.8226 137.305 11.4653 137.539 8.12305H139.948C139.714 11.7496 138.239 13.9522 135.337 14.7335V14.7851L136.27 14.9411C138.031 15.2267 138.99 16.2103 139.707 17.7902L141.34 21.4683H138.564L137.348 18.4645C136.638 16.7021 135.058 16.0027 133.011 16.0027Z" fill="#A81B8D" />
  <path d="M142.439 14.8111C142.439 10.6928 145.677 7.76562 150.081 7.76562C154.434 7.76562 157.671 10.6928 157.671 14.8111C157.671 18.9294 154.434 21.8314 150.081 21.8314C145.677 21.8314 142.439 18.9294 142.439 14.8111ZM155.184 14.7846C155.184 11.962 153.216 9.96692 150.081 9.96692C146.895 9.96692 144.925 11.962 144.925 14.7846C144.925 17.6351 146.894 19.6552 150.081 19.6552C153.216 19.6552 155.184 17.6417 155.184 14.7846Z" fill="#A81B8D" />
  <path d="M171.476 16.0047H163.057V21.4702H160.648V8.125H163.057V13.8246H171.476V8.125H173.885V21.465H171.476V16.0047Z" fill="#A81B8D" />
  <path d="M177.691 8.12305H187.43V10.331H180.1V21.4683H177.691V8.12305Z" fill="#A81B8D" />
  <path d="M190.072 8.12536H192.481L192.197 11.8563H192.248C193.051 9.31789 195.33 7.75781 198.257 7.75781C202.224 7.75781 204.992 10.6334 204.992 14.7253C204.992 18.8965 201.884 21.8236 197.403 21.8236C195.486 21.8236 193.958 21.2789 192.481 20.0613V26.6413H190.072V8.12536ZM202.5 14.8086C202.5 11.7519 200.661 9.96439 197.501 9.96439C194.341 9.96439 192.477 11.7519 192.477 14.8086C192.477 17.8388 194.343 19.6527 197.477 19.6527C200.641 19.658 202.505 17.8441 202.505 14.8139L202.5 14.8086Z" fill="#A81B8D" />
  <path d="M207.174 14.8111C207.174 10.6663 210.1 7.76562 214.445 7.76562C218.874 7.76562 221.361 10.5896 221.31 14.9407L209.887 16.5721C210.482 18.5407 212.115 19.6552 214.937 19.6552C216.776 19.6552 218.539 19.2401 220.325 18.6187V20.8465C218.738 21.4678 217.165 21.8314 214.912 21.8314C210.069 21.8314 207.174 18.8514 207.174 14.8111ZM218.829 13.3859C218.565 11.1846 217.09 9.97353 214.445 9.97353C211.311 9.97353 209.686 11.6579 209.653 14.6881L218.829 13.3859Z" fill="#A81B8D" />
  <path d="M223.305 14.8131C223.305 10.7146 226.413 7.76766 231.154 7.76766C232.536 7.76322 233.913 7.94601 235.246 8.31104V10.5652C233.918 10.1698 232.54 9.96899 231.154 9.96895C227.682 9.96895 225.792 11.7829 225.792 14.8396C225.792 17.7667 227.709 19.6573 231.128 19.6573C232.759 19.6573 234.184 19.4233 235.324 19.0094V21.2372C234.184 21.5995 232.578 21.8334 230.946 21.8334C226.414 21.8334 223.305 18.8019 223.305 14.8131Z" fill="#A81B8D" />
  <path d="M236.982 14.8131C236.982 10.7146 240.091 7.76767 244.83 7.76767C246.215 7.76275 247.594 7.94554 248.929 8.31106V10.5652C247.599 10.1693 246.218 9.96849 244.83 9.96897C241.36 9.96897 239.468 11.7829 239.468 14.8396C239.468 17.7667 241.385 19.6573 244.804 19.6573C246.437 19.6573 247.861 19.4233 249 19.0095V21.2372C247.861 21.5995 246.256 21.8335 244.623 21.8335C240.095 21.8335 236.982 18.8019 236.982 14.8131Z" fill="#A81B8D" />
  <path d="M20.9539 15.8239C20.9393 15.4695 20.9222 15.1152 20.8944 14.7662C20.8666 14.4172 20.8389 14.0575 20.8045 13.7085C20.7291 12.9999 20.6273 12.2952 20.5136 11.5932C20.3999 10.8911 20.24 10.197 20.0747 9.50291C19.7378 8.12087 19.2813 6.77076 18.7103 5.46787C18.6389 5.30525 18.5609 5.1466 18.4855 4.98531C18.4102 4.82401 18.3256 4.67065 18.2475 4.51067C18.0849 4.19601 17.9131 3.88664 17.728 3.5852C17.3662 2.98022 16.9479 2.41093 16.4786 1.88499L16.2988 1.69328L16.2089 1.59677L16.1137 1.50687L15.9233 1.32574C15.8585 1.26625 15.7911 1.21204 15.7237 1.15519C15.5915 1.0362 15.45 0.937048 15.3098 0.83128C15.2398 0.777074 15.1644 0.736086 15.0904 0.687168C15.0163 0.638251 14.9449 0.588011 14.8656 0.554958L14.6343 0.430681C14.5562 0.389696 14.4743 0.357965 14.3936 0.322268L14.272 0.268066C14.231 0.2522 14.1887 0.238977 14.1464 0.224434C14.0631 0.19667 13.9785 0.164938 13.8926 0.139818H13.8833C13.3047 -0.0156652 12.6989 -0.0418397 12.109 0.063142C8.50799 0.69794 5.2744 2.65621 3.04341 5.55332C0.812415 8.45043 -0.254752 12.077 0.0515163 15.7207C0.101494 16.2844 0.272883 16.8306 0.553913 17.3218V17.3311C0.598865 17.4077 0.650427 17.4818 0.698022 17.5571L0.769415 17.6682L0.851385 17.7726C0.906913 17.8427 0.957153 17.9141 1.01533 17.9815L1.19381 18.1759C1.25066 18.2433 1.32602 18.3015 1.38155 18.3623C1.43707 18.4231 1.50582 18.4853 1.57457 18.5408C1.70678 18.6505 1.83899 18.7669 1.98971 18.866L2.20389 19.0181L2.42733 19.1595C2.57143 19.2573 2.73273 19.3354 2.88345 19.4239C3.50865 19.7528 4.16387 20.0211 4.84015 20.2251C5.17861 20.3309 5.52059 20.4239 5.8661 20.5041C6.04062 20.5411 6.21117 20.5861 6.38569 20.6204C6.5602 20.6548 6.73472 20.6892 6.91453 20.7209C8.32156 20.9562 9.7465 21.0677 11.173 21.0541C11.8856 21.0435 12.5995 21.0197 13.3108 20.9629C14.0221 20.906 14.7321 20.8307 15.4381 20.7209C15.7911 20.6667 16.1428 20.6098 16.4958 20.5437C16.8488 20.4776 17.1965 20.4115 17.5442 20.3362C18.2383 20.1841 18.9258 20.0043 19.604 19.8073C20.0284 19.6831 20.4462 19.5429 20.8613 19.3975C20.9063 18.9233 20.9376 18.4473 20.9552 17.9696C20.975 17.2464 20.979 16.5325 20.9539 15.8239Z" fill="#A81B8D" />
  <path d="M17.9813 2.09542C18.136 2.20912 18.2841 2.32943 18.4321 2.45106C18.5802 2.5727 18.7204 2.70358 18.8579 2.83447C18.9954 2.96535 19.1342 3.09889 19.2624 3.2311L19.4568 3.43999C19.5216 3.51006 19.589 3.58145 19.6445 3.65417C19.8917 3.94106 20.1271 4.23853 20.3518 4.54261C20.5766 4.8467 20.7842 5.16004 20.9878 5.47734C21.7754 6.75462 22.4196 8.11491 22.9088 9.53353C23.0278 9.88653 23.1494 10.2409 23.2512 10.5991C23.353 10.9574 23.4535 11.3184 23.5473 11.6793C23.7258 12.4038 23.8713 13.1336 23.9916 13.8727C24.1985 15.1762 24.3038 16.4939 24.3062 17.8138C24.6857 17.6314 25.0598 17.4423 25.4221 17.2427C25.5635 17.1673 25.6971 17.0854 25.8372 17.0087C25.9774 16.932 26.1082 16.8487 26.2405 16.7654C26.5049 16.5975 26.7693 16.427 27.0192 16.2366C27.5289 15.8765 27.9925 15.4551 28.3994 14.9819C28.8453 14.4415 29.17 13.8117 29.3513 13.1349C28.9117 9.78122 27.2729 6.70002 24.7378 4.46075C22.2028 2.22148 18.9429 0.975523 15.5605 0.953125C15.6872 0.977119 15.8125 1.00757 15.936 1.04435C16.6747 1.27072 17.3672 1.62662 17.9813 2.09542Z" fill="#A81B8D" />
  <path d="M18.7044 27.4448C19.0517 26.9302 19.3349 26.3752 19.5479 25.7921C19.9039 24.8193 20.1764 23.818 20.3623 22.7989C19.1094 23.1151 17.8343 23.336 16.5481 23.4599C15.805 23.5274 15.0594 23.5697 14.3137 23.5763C13.9396 23.5763 13.5667 23.5763 13.1939 23.5591C12.8211 23.5419 12.4482 23.5208 12.0754 23.493C10.5802 23.3727 9.1028 23.0876 7.67018 22.6429C7.49037 22.586 7.31321 22.5212 7.14134 22.4604C6.96946 22.3996 6.78701 22.3282 6.6125 22.2608C6.26346 22.118 5.91707 21.9647 5.57729 21.7954C5.49136 21.7558 5.40807 21.7121 5.32345 21.6632L5.07358 21.531C4.90699 21.4398 4.7457 21.3367 4.58308 21.2388C4.42046 21.141 4.26445 21.0286 4.1058 20.9228C3.94715 20.8171 3.79775 20.6968 3.64968 20.5738C3.04421 20.0956 2.52851 19.5137 2.12662 18.8551C2.05581 18.7383 1.99137 18.6178 1.93359 18.4941C2.79506 21.7811 4.8221 24.6429 7.63706 26.5462C10.452 28.4495 13.8629 29.2646 17.2342 28.8396C17.8221 28.49 18.3244 28.0134 18.7044 27.4448Z" fill="#A81B8D" />
  <path d="M27.9395 18.7372C27.6729 19.0319 27.388 19.3096 27.0867 19.5688C26.4968 20.0793 25.8603 20.5334 25.1856 20.9252C24.7995 21.1491 24.4064 21.3545 24.0063 21.5413C23.9234 21.99 23.8207 22.4355 23.6982 22.878C23.4869 23.6303 23.2054 24.3611 22.8574 25.0608C22.6809 25.4179 22.4822 25.7637 22.2624 26.096C22.0427 26.4348 21.7984 26.7569 21.5313 27.0598C21.2669 27.3639 20.8478 27.8094 20.4961 28.0262C22.8941 27.103 24.9922 25.5386 26.5614 23.5038C28.1305 21.469 29.1104 19.0422 29.3938 16.4883C29.2159 16.951 28.9795 17.3891 28.6905 17.7919C28.4626 18.1242 28.2117 18.44 27.9395 18.7372Z" fill="#A81B8D" />
</svg>