<svg width="22" height="23" viewBox="0 0 22 23" fill="none" xmlns="http://www.w3.org/2000/svg">
  <g clip-path="url(#clip0_288_1930)">
    <path d="M19.844 19.6622C19.9868 18.8374 20.0591 17.9936 20.0591 17.1486C20.0591 14.4933 19.3682 11.9718 18.0611 9.8566C16.8534 7.9023 15.1593 6.41524 13.2643 5.63803L13.4305 5.0745C13.6091 5.05798 13.7489 4.90791 13.7489 4.72508C13.7489 4.61325 13.6964 4.51383 13.615 4.44956L14.6475 0.950345C14.6788 0.844183 14.6582 0.729455 14.592 0.6408C14.5258 0.552191 14.4215 0.5 14.3109 0.5H7.68953C7.57883 0.5 7.47463 0.552191 7.40835 0.640847C7.34207 0.729502 7.32147 0.84423 7.35279 0.950391L8.38534 4.44961C8.30384 4.51392 8.25137 4.6133 8.25137 4.72512C8.25137 4.90796 8.39119 5.05803 8.56972 5.07455L8.73598 5.63803C6.84103 6.41524 5.14689 7.90225 3.93918 9.8566C2.63206 11.9718 1.94116 14.4933 1.94116 17.1486C1.94116 17.9936 2.01343 18.8374 2.15625 19.6622C1.57194 19.8527 1.15576 20.3996 1.15576 21.0444C1.1559 21.847 1.80888 22.5 2.61151 22.5H19.3889C20.1915 22.5 20.8445 21.847 20.8445 21.0444C20.8445 20.3996 20.4283 19.8527 19.844 19.6622ZM19.3889 21.7979H2.61151C2.19608 21.7979 1.85808 21.4599 1.85808 21.0444C1.85808 20.6409 2.17347 20.3117 2.57668 20.2933H11.0002C11.1941 20.2933 11.3513 20.1361 11.3513 19.9422C11.3513 19.7484 11.1941 19.5912 11.0002 19.5912H2.85734C2.7157 18.7904 2.64343 17.9702 2.64343 17.1486C2.64343 12.1425 5.3484 7.65108 9.22855 6.19959H11.432C11.6258 6.19959 11.783 6.04241 11.783 5.84853C11.783 5.65465 11.6258 5.49746 11.432 5.49746H9.42669L9.30236 5.07619H12.6981L12.4995 5.74915C12.4471 5.92684 12.5417 6.11468 12.7157 6.17825C16.626 7.60712 19.357 12.1182 19.357 17.1485C19.357 17.9702 19.2847 18.7903 19.1431 19.5911H18.0307C17.8368 19.5911 17.6796 19.7483 17.6796 19.9422C17.6796 20.1361 17.8368 20.2933 18.0307 20.2933H19.4237C19.8269 20.3117 20.1423 20.6409 20.1423 21.0443C20.1424 21.4599 19.8044 21.7979 19.3889 21.7979ZM13.8412 1.20213L12.9053 4.37411H9.09519L8.15916 1.20213H13.8412Z" fill="white" />
    <path d="M17.2166 16.7986C17.0795 16.6615 16.8572 16.6615 16.7202 16.7986L16.512 17.0067L16.3039 16.7986C16.1668 16.6615 15.9445 16.6615 15.8074 16.7986C15.6703 16.9357 15.6703 17.158 15.8074 17.295L16.0156 17.5032L15.8074 17.7113C15.6703 17.8484 15.6703 18.0707 15.8074 18.2078C15.8759 18.2763 15.9658 18.3106 16.0556 18.3106C16.1455 18.3106 16.2353 18.2764 16.3039 18.2078L16.512 17.9996L16.7202 18.2078C16.7887 18.2763 16.8786 18.3106 16.9684 18.3106C17.0582 18.3106 17.1481 18.2764 17.2166 18.2078C17.3537 18.0707 17.3537 17.8484 17.2166 17.7113L17.0085 17.5032L17.2166 17.295C17.3537 17.158 17.3537 16.9356 17.2166 16.7986Z" fill="white" />
    <path d="M15.0738 11.2528C15.0736 11.2495 15.0736 11.2463 15.0733 11.2431C15.0721 11.2295 15.07 11.2162 15.0673 11.2032C15.067 11.2019 15.0666 11.2006 15.0663 11.1993C15.0637 11.1875 15.0604 11.176 15.0566 11.1648C15.0556 11.1617 15.0544 11.1587 15.0533 11.1556C15.0498 11.146 15.0459 11.1367 15.0416 11.1276C15.0401 11.1243 15.0385 11.121 15.0369 11.1178C15.0321 11.1083 15.0269 11.0993 15.0213 11.0904C15.0198 11.088 15.0185 11.0855 15.0169 11.0831C15.0097 11.0721 15.0018 11.0615 14.9934 11.0514C14.9917 11.0495 14.9898 11.0476 14.9881 11.0456C14.9811 11.0376 14.9738 11.0299 14.9661 11.0226C14.9647 11.0213 14.9637 11.0199 14.9623 11.0186L12.4209 8.66784C12.3561 8.60784 12.2709 8.57451 12.1825 8.57451H9.81764C9.80617 8.57451 9.79479 8.57512 9.78347 8.57624C9.77813 8.57675 9.77294 8.57774 9.76765 8.57849C9.76184 8.57933 9.75599 8.58003 9.75028 8.58116C9.74396 8.58237 9.73778 8.58406 9.7316 8.5856C9.72706 8.58677 9.72248 8.58776 9.71798 8.58911C9.71157 8.59103 9.7053 8.59328 9.69902 8.59553C9.69486 8.59702 9.69065 8.59843 9.68653 8.60011C9.68044 8.60255 9.67454 8.60531 9.66865 8.60812C9.66443 8.61008 9.66027 8.612 9.65615 8.61416C9.65062 8.61706 9.64529 8.62015 9.63995 8.62328C9.63565 8.62581 9.63129 8.62839 9.62708 8.6311C9.62221 8.63428 9.61748 8.63761 9.6128 8.64102C9.6084 8.64421 9.604 8.64739 9.59974 8.65081C9.59544 8.65422 9.59127 8.65778 9.58711 8.66143C9.58453 8.66368 9.58182 8.66564 9.57933 8.66798L7.03796 11.0188C6.95188 11.0984 6.91125 11.2157 6.92965 11.3315L7.56502 15.3342C7.59208 15.5047 7.73911 15.6302 7.91174 15.6302H14.0887C14.2614 15.6302 14.4084 15.5047 14.4354 15.3342L15.0708 11.3315C15.0712 11.3292 15.0711 11.3269 15.0715 11.3247C15.0727 11.3155 15.0736 11.3063 15.0741 11.2969C15.0744 11.2923 15.0747 11.2877 15.0748 11.2831C15.0749 11.2809 15.0752 11.2787 15.0752 11.2765C15.075 11.2683 15.0743 11.2606 15.0738 11.2528ZM10.1687 10.9252V9.27659H12.045L13.8273 10.9252H10.1687ZM9.46653 9.72848V14.9279H8.21131L7.65237 11.4066L9.46653 9.72848ZM10.1687 14.9279V11.6274H14.3128L13.7888 14.9279H10.1687Z" fill="white" />
  </g>
  <defs>
    <clipPath id="clip0_288_1930">
      <rect width="22" height="22" fill="white" transform="translate(0 0.5)" />
    </clipPath>
  </defs>
</svg>