<svg width="24" height="25" viewBox="0 0 24 25" fill="none" xmlns="http://www.w3.org/2000/svg">
  <path d="M22.4001 12.8C20.9001 10.4 18.6001 8.8 15.9001 8.2C15.7001 8.2 15.5001 8.1 15.4001 8.1C13.7001 5.5 10.8001 4.5 8.1001 5.3C7.6001 5.4 7.2001 5.6 6.7001 5.8L6.1001 6.2L6.6001 6.7C7.4001 7.4 8.0001 8.2 8.6001 9.2C8.4001 9.3 8.2001 9.4 8.1001 9.5C7.7001 9.7 7.2001 10 6.9001 10.4C6.1001 9.2 4.8001 8.4 3.3001 8.3H2.6001V9.9C2.7001 11.2 3.2001 12.4 4.1001 13.3C3.1001 14.4 2.6001 15.7 2.6001 17.2V17.9L3.2001 18C4.8001 18.1 6.3001 17.3 7.1001 16C7.9001 16.6 8.7001 17.1 9.5001 17.5C9.3001 18.2 9.1001 18.8 8.8001 19.4L8.5001 20L9.2001 20.1H10.0001C10.6001 20.1 11.2001 20 11.8001 19.8C12.8001 19.5 13.7001 19 14.5001 18.2C16.5001 18 18.5001 17.3 20.2001 16C21.0001 15.4 21.7001 14.6 22.3001 13.7L22.7001 13.1L22.4001 12.8ZM7.8001 6.4C8.0001 6.3 8.2001 6.3 8.4001 6.2C10.5001 5.6 12.6001 6.2 14.1001 7.9C12.5001 7.8 11.0001 8.1 9.5001 8.8C9.0001 7.9 8.5001 7.1 7.8001 6.4ZM11.4001 18.8C10.9001 18.9 10.4001 19 9.9001 19C10.1001 18.6 10.2001 18.1 10.4001 17.7C11.2001 18 12.0001 18.1 12.8001 18.2C12.3001 18.4 11.9001 18.6 11.4001 18.8ZM21.4001 13.1C20.9001 13.9 20.2001 14.5 19.5001 15.1C15.9001 18 10.6001 17.8 7.2001 14.6L6.7001 14.1L6.4001 14.8C5.9001 16 4.8001 16.8 3.5001 16.8C3.6001 15.5 4.1001 14.3 5.1001 13.5L5.6001 13.1L5.1001 12.7C4.2001 12 3.6001 10.9 3.5001 9.7V9.2C4.7001 9.4 5.8001 10.2 6.3001 11.3L6.6001 11.9L7.1001 11.5C7.6001 11 8.1001 10.6 8.7001 10.3C9.0001 10.1 9.2001 10 9.5001 9.9C11.2001 9 13.2001 8.7 15.1001 9H15.2001C15.4001 9 15.6001 9.1 15.8001 9.1C18.1001 9.7 20.1001 11 21.4001 13.1ZM18.3001 12V12.1C18.3001 12.5 18.0001 12.9 17.5001 12.9C17.0001 12.9 16.7001 12.6 16.7001 12.1V12C16.7001 11.6 17.0001 11.2 17.5001 11.2C18.0001 11.2 18.3001 11.6 18.3001 12Z" fill="white" />
</svg>