<svg width="24" height="25" viewBox="0 0 24 25" fill="none" xmlns="http://www.w3.org/2000/svg">
  <path d="M6.79993 8.09998C7.03993 8.09998 7.19992 7.94 7.19992 7.7C7.19992 7.46 7.3599 7.30002 7.5999 7.30002C7.8399 7.30002 7.99989 7.14003 7.99989 6.90003C7.99989 6.66003 7.8399 6.5 7.5999 6.5C6.91989 6.5 6.3999 7.01998 6.3999 7.7C6.3999 7.94 6.55993 8.09998 6.79993 8.09998Z" fill="white" />
  <path d="M4.00013 12.9C4.24013 12.9 4.40011 12.74 4.40011 12.5C4.40011 12.26 4.5601 12.1 4.8001 12.1C5.0401 12.1 5.20008 11.94 5.20008 11.7C5.20008 11.46 5.0401 11.3 4.8001 11.3C4.12008 11.3 3.6001 11.82 3.6001 12.5C3.60014 12.74 3.76013 12.9 4.00013 12.9Z" fill="white" />
  <path d="M3.20008 16.5C3.20008 16.26 3.0401 16.1 2.8001 16.1C2.12008 16.1 1.6001 16.62 1.6001 17.3C1.6001 17.54 1.76008 17.7 2.00008 17.7C2.24008 17.7 2.40007 17.54 2.40007 17.3C2.40007 17.06 2.56005 16.9 2.80005 16.9C3.04005 16.9 3.20008 16.74 3.20008 16.5Z" fill="white" />
  <path d="M7.5999 16.1C6.91989 16.1 6.3999 16.62 6.3999 17.3C6.3999 17.54 6.55989 17.7 6.79989 17.7C7.03989 17.7 7.19987 17.54 7.19987 17.3C7.19987 17.06 7.35986 16.9 7.59986 16.9C7.83986 16.9 7.99984 16.74 7.99984 16.5C7.99984 16.26 7.8399 16.1 7.5999 16.1Z" fill="white" />
  <path d="M13.6002 8.89999H16.0002C16.2402 8.89999 16.4002 8.74001 16.4002 8.50001C16.4002 8.26001 16.2402 8.10002 16.0002 8.10002H13.6002C13.3602 8.10002 13.2002 8.26001 13.2002 8.50001C13.2002 8.74001 13.3602 8.89999 13.6002 8.89999Z" fill="white" />
  <path d="M14.0001 7.30002H14.4001C14.6401 7.30002 14.8001 7.14003 14.8001 6.90003C14.8001 6.66003 14.6401 6.5 14.4001 6.5H14.0001C13.7601 6.5 13.6001 6.65998 13.6001 6.89998C13.6001 7.13998 13.7601 7.30002 14.0001 7.30002Z" fill="white" />
  <path d="M8.79993 12.9C9.03993 12.9 9.19992 12.74 9.19992 12.5C9.19992 12.26 9.3599 12.1 9.5999 12.1C9.8399 12.1 9.99989 11.94 9.99989 11.7C9.99989 11.46 9.8399 11.3 9.5999 11.3C8.91989 11.3 8.3999 11.82 8.3999 12.5C8.39995 12.74 8.55993 12.9 8.79993 12.9Z" fill="white" />
  <path d="M15.6002 13.7H18.0002C18.2402 13.7 18.4002 13.54 18.4002 13.3C18.4002 13.06 18.2402 12.9 18.0002 12.9H15.6002C15.3602 12.9 15.2002 13.06 15.2002 13.3C15.2002 13.54 15.3602 13.7 15.6002 13.7Z" fill="white" />
  <path d="M16.0001 12.1H16.4001C16.6401 12.1 16.8001 11.94 16.8001 11.7C16.8001 11.46 16.6401 11.3 16.4001 11.3H16.0001C15.7601 11.3 15.6001 11.46 15.6001 11.7C15.6001 11.94 15.7601 12.1 16.0001 12.1Z" fill="white" />
  <path d="M12.4002 16.1C11.7202 16.1 11.2002 16.62 11.2002 17.3C11.2002 17.54 11.3602 17.7 11.6002 17.7C11.8402 17.7 12.0002 17.54 12.0002 17.3C12.0002 17.06 12.1602 16.9 12.4002 16.9C12.6402 16.9 12.8002 16.74 12.8002 16.5C12.8002 16.26 12.6402 16.1 12.4002 16.1Z" fill="white" />
  <path d="M20.8 17.7H18.4C18.16 17.7 18 17.86 18 18.1C18 18.34 18.16 18.4999 18.4 18.4999H20.8C21.04 18.4999 21.2 18.34 21.2 18.1C21.2 17.86 21.04 17.7 20.8 17.7Z" fill="white" />
  <path d="M18.7999 16.9H19.1999C19.4399 16.9 19.5999 16.74 19.5999 16.5C19.5999 16.26 19.4399 16.1 19.1999 16.1H18.7999C18.5599 16.1 18.3999 16.26 18.3999 16.5C18.3999 16.74 18.5599 16.9 18.7999 16.9Z" fill="white" />
  <path d="M23.8787 18.1256C23.9575 17.8651 24 17.5881 24 17.3C24 17.0123 23.9575 16.7356 23.879 16.4755C23.8745 16.3811 23.8451 16.3 23.7949 16.2377C23.381 15.2131 22.3827 14.5 21.2 14.5H20.3693C20.6453 14.2282 20.8638 13.8987 21.0075 13.53C21.048 13.4732 21.0739 13.404 21.0787 13.3256C21.1575 13.0651 21.2 12.7881 21.2 12.5C21.2 12.2123 21.1575 11.9356 21.0789 11.6755C21.0745 11.5811 21.045 11.5 20.9948 11.4378C20.5809 10.4131 19.5827 9.70001 18.3999 9.70001H18.3692C18.6452 9.42827 18.8638 9.09879 19.0074 8.72998C19.0479 8.67321 19.0738 8.60398 19.0786 8.5256C19.1574 8.26512 19.2 7.98809 19.2 7.69999C19.2 7.41228 19.1575 7.13562 19.0789 6.87546C19.0745 6.78115 19.045 6.70001 18.9949 6.63776C18.581 5.61312 17.5827 4.90001 16.4 4.90001H7.59998C6.03998 4.90001 4.8 6.13999 4.8 7.69999C4.8 8.6021 5.21522 9.39663 5.86664 9.90682C5.53866 9.7737 5.17889 9.70001 4.8 9.70001C3.24 9.70001 2.00002 10.94 2.00002 12.5C2.00002 13.2883 2.31698 13.9946 2.83158 14.5008C2.82103 14.5007 2.81063 14.5 2.80003 14.5C1.23998 14.5 0 15.74 0 17.3C0 18.86 1.23998 20.1 2.79998 20.1H7.59998H12.4H21.2C22.3951 20.1 23.4016 19.3718 23.8075 18.33C23.848 18.2732 23.8739 18.204 23.8787 18.1256ZM18.4 10.5C19.0665 10.5 19.6478 10.8116 20.0095 11.3H18C17.76 11.3 17.6 11.46 17.6 11.7C17.6 11.94 17.76 12.1 18 12.1H20.3613C20.3866 12.2289 20.4 12.3626 20.4 12.4999C20.4 12.6373 20.3866 12.771 20.3613 12.8999H19.6C19.36 12.8999 19.2 13.0599 19.2 13.2999C19.2 13.5399 19.36 13.6999 19.6 13.6999H20.0095C19.6479 14.1882 19.0665 14.4999 18.4 14.4999H12.4H11.5693C11.8022 14.2706 11.9945 14.0004 12.1351 13.6999H13.6C13.84 13.6999 14 13.5399 14 13.2999C14 13.0599 13.84 12.8999 13.6 12.8999H12.3718C12.377 12.8631 12.3819 12.8262 12.3857 12.7889C12.3863 12.7826 12.3865 12.7761 12.3871 12.7699C12.3909 12.7288 12.3944 12.6876 12.3964 12.6459C12.3989 12.5975 12.4001 12.5489 12.4001 12.4999C12.4001 12.451 12.3989 12.4023 12.3964 12.354C12.3944 12.3123 12.391 12.2711 12.3871 12.23C12.3865 12.2237 12.3863 12.2173 12.3857 12.211C12.3819 12.1736 12.377 12.1368 12.3718 12.1H14.4C14.64 12.1 14.8 11.94 14.8 11.7C14.8 11.46 14.64 11.3 14.4 11.3H12.1351C11.9944 10.9996 11.8021 10.7293 11.5693 10.5H16.4H18.4ZM12.4 19.3C11.28 19.3 10.4 18.42 10.4 17.3C10.4 16.18 11.28 15.3 12.4 15.3C13.52 15.3 14.4 16.18 14.4 17.3C14.4 18.42 13.52 19.3 12.4 19.3ZM7.59998 19.3C6.48 19.3 5.59997 18.42 5.59997 17.3C5.59997 16.18 6.47995 15.3 7.59998 15.3C8.71997 15.3 9.6 16.18 9.6 17.3C9.6 18.42 8.72002 19.3 7.59998 19.3ZM9.6 10.5C10.72 10.5 11.6 11.38 11.6 12.5C11.6 13.62 10.72 14.5 9.6 14.5C8.48002 14.5 7.59998 13.62 7.59998 12.5C7.59998 11.38 8.48002 10.5 9.6 10.5ZM9.6 15.3H10.4307C10.2655 15.4627 10.1204 15.6458 9.99998 15.8459C9.87933 15.6454 9.73402 15.4621 9.56841 15.2992C9.579 15.2993 9.58941 15.3 9.6 15.3ZM7.63158 14.5008C7.62103 14.5007 7.61063 14.5 7.60003 14.5C7.22114 14.5 6.86137 14.5736 6.53339 14.7068C6.79875 14.4989 7.02525 14.2444 7.20005 13.9541C7.32066 14.1545 7.46597 14.3379 7.63158 14.5008ZM16.4 5.69998C17.0665 5.69998 17.6479 6.01165 18.0095 6.49999H16C15.76 6.49999 15.6 6.65998 15.6 6.89998C15.6 7.13998 15.76 7.29996 16 7.29996H18.3613C18.3866 7.42892 18.4 7.5626 18.4 7.69995C18.4 7.83729 18.3866 7.97098 18.3613 8.09993H17.6C17.36 8.09993 17.2 8.25991 17.2 8.49991C17.2 8.73991 17.36 8.8999 17.6 8.8999H18.0095C17.6479 9.38824 17.0665 9.69991 16.4 9.69991H9.6H9.56925C9.80217 9.47065 9.99441 9.20037 10.1351 8.8999H11.6C11.84 8.8999 12 8.73991 12 8.49991C12 8.25991 11.84 8.09993 11.6 8.09993H10.3717C10.3769 8.06313 10.3819 8.02624 10.3856 7.98888C10.3862 7.9826 10.3865 7.97613 10.3871 7.96985C10.3909 7.92884 10.3943 7.88763 10.3964 7.84587C10.3988 7.79754 10.4 7.74893 10.4 7.69995C10.4 7.65096 10.3988 7.60231 10.3964 7.55402C10.3943 7.51231 10.3909 7.4711 10.3871 7.43004C10.3865 7.42371 10.3863 7.41729 10.3856 7.41101C10.3819 7.3736 10.3769 7.33676 10.3717 7.29996H12.4C12.64 7.29996 12.8 7.13998 12.8 6.89998C12.8 6.65998 12.64 6.49999 12.4 6.49999H10.1351C9.99436 6.19957 9.80212 5.92929 9.56925 5.69998H16.4ZM5.60002 7.69999C5.60002 6.58001 6.48 5.69998 7.60003 5.69998C8.72002 5.69998 9.60005 6.57996 9.60005 7.69999C9.60005 8.81998 8.72006 9.70001 7.60003 9.70001C6.48 9.70001 5.60002 8.81998 5.60002 7.69999ZM7.59998 10.5H7.63073C7.4655 10.6627 7.32042 10.8458 7.2 11.0459C7.02525 10.7555 6.79875 10.501 6.53334 10.2932C6.86133 10.4263 7.22109 10.5 7.59998 10.5ZM2.79998 12.5C2.79998 11.38 3.67997 10.5 4.8 10.5C5.91998 10.5 6.80002 11.38 6.80002 12.5C6.80002 13.62 5.92003 14.5 4.8 14.5C3.68002 14.5 2.79998 13.62 2.79998 12.5ZM4.8 15.3C5.17889 15.3 5.53866 15.2263 5.86664 15.0932C5.60128 15.301 5.37478 15.5555 5.19998 15.8459C5.07933 15.6454 4.93402 15.4621 4.76841 15.2992C4.779 15.2993 4.78941 15.3 4.8 15.3ZM0.800016 17.3C0.800016 16.18 1.68 15.3 2.80003 15.3C3.92006 15.3 4.8 16.18 4.8 17.3C4.8 18.42 3.92002 19.3 2.79998 19.3C1.67995 19.3 0.800016 18.42 0.800016 17.3ZM4.76925 19.3C4.93448 19.1373 5.07956 18.9542 5.19998 18.7541C5.32045 18.9542 5.46548 19.1373 5.63072 19.3H4.76925ZM9.56925 19.3C9.73448 19.1373 9.87956 18.9542 9.99998 18.7541C10.1205 18.9542 10.2655 19.1373 10.4307 19.3H9.56925ZM21.2 19.3H14.3693C14.6022 19.0707 14.7944 18.8005 14.9351 18.5H16.4C16.64 18.5 16.8 18.34 16.8 18.1C16.8 17.86 16.64 17.7 16.4 17.7H15.1718C15.1769 17.6632 15.1819 17.6263 15.1856 17.589C15.1862 17.5827 15.1865 17.5762 15.1871 17.5699C15.1909 17.5289 15.1943 17.4877 15.1964 17.446C15.1988 17.3976 15.2 17.349 15.2 17.3C15.2 17.2511 15.1988 17.2024 15.1964 17.1541C15.1943 17.1124 15.1909 17.0712 15.1871 17.0301C15.1865 17.0238 15.1863 17.0174 15.1856 17.0111C15.1819 16.9737 15.1769 16.9369 15.1718 16.9001H17.2C17.44 16.9001 17.6 16.7401 17.6 16.5001C17.6 16.2601 17.44 16.1001 17.2 16.1001H14.9351C14.7944 15.7997 14.6021 15.5294 14.3693 15.3001H18.4H21.2C21.8664 15.3001 22.4478 15.6117 22.8095 16.1001H20.7999C20.5599 16.1001 20.4 16.2601 20.4 16.5001C20.4 16.7401 20.5599 16.9001 20.7999 16.9001H23.1613C23.1866 17.029 23.1999 17.1627 23.1999 17.3C23.1999 17.4374 23.1865 17.5711 23.1613 17.7H22.4C22.16 17.7 22 17.86 22 18.1C22 18.34 22.16 18.5 22.4 18.5H22.8095C22.4479 18.9883 21.8664 19.3 21.2 19.3Z" fill="white" />
</svg>