
<svg width="24" height="24" viewBox="0 0 24 24" fill="none" xmlns="http://www.w3.org/2000/svg">
  <path d="M21.8274 16.7412C21.79 16.6176 21.7145 16.5075 21.6095 16.4283C21.1855 16.1083 20.6844 15.9443 20.1814 15.9302L21.0437 12.3283C21.0496 12.3252 21.0558 12.3228 21.0617 12.3194L22.1426 11.6985C22.438 11.5283 22.5408 11.1488 22.3713 10.8519L21.0597 8.56701C20.9287 8.33925 20.6954 8.18198 20.4362 8.1465L9.0428 6.56353C8.85038 6.53657 8.67291 6.67101 8.64619 6.86334C8.61947 7.05567 8.75372 7.23323 8.946 7.25995L20.3402 8.84296C20.3858 8.8492 20.4269 8.87704 20.45 8.91721L21.7203 11.1301L20.7833 11.6684L19.891 10.1151C19.7961 9.94893 19.6264 9.83437 19.4377 9.80859L4.69842 7.76067L5.5627 6.78984L7.32267 7.03439C7.51453 7.06115 7.69252 6.92714 7.71928 6.73457C7.746 6.54225 7.61175 6.36468 7.41947 6.33797L6.12516 6.15811L6.29644 5.96573C6.51516 5.72011 6.56602 5.36901 6.42614 5.07131L5.04802 2.13951C4.85916 1.73765 4.39992 1.54237 3.97992 1.68511C1.59942 2.49492 0 4.72959 0 7.24593C0 8.20312 0.235781 9.15337 0.681797 9.99393C0.729141 10.0832 0.797484 10.163 0.879422 10.2248L1.30922 10.5491V18.4383H0.891422C0.568313 18.4383 0.305484 18.7011 0.305484 19.0242V21.7753C0.305484 22.0984 0.568313 22.3612 0.891422 22.3612H2.43038C2.75348 22.3612 3.01631 22.0984 3.01631 21.7753V19.0242C3.01631 18.7011 2.75348 18.4383 2.43038 18.4383H2.01234V10.6893C2.09344 10.6549 2.16816 10.6029 2.2298 10.5337L4.13602 8.39254L8.83739 9.04575L6.72478 21.6785C6.66502 22.036 6.94087 22.3613 7.30308 22.3613H8.59027C8.87803 22.3613 9.12108 22.1552 9.16814 21.8717L9.33628 20.866H13.9708L14.139 21.8714C14.1861 22.1553 14.4292 22.3613 14.7169 22.3613H16.0036C16.3662 22.3613 16.6416 22.0357 16.5819 21.6785L15.9627 17.9753C15.9307 17.7839 15.7497 17.6544 15.558 17.6866C15.3665 17.7187 15.2371 17.8998 15.2692 18.0914L15.8656 21.6582H14.8162L12.7993 9.59625L13.8736 9.7455L14.9973 16.4662C15.026 16.638 15.1749 16.7598 15.3436 16.7598C15.3629 16.7598 15.3824 16.7583 15.402 16.7549C15.5935 16.7229 15.7229 16.5417 15.6908 16.3502L14.6035 9.84689L19.301 10.4996L20.2142 12.0895C20.2481 12.1488 20.2911 12.2008 20.3406 12.245L19.4367 16.0207C19.0329 16.1324 18.6532 16.3454 18.341 16.6576C17.4651 17.5335 17.3665 18.9387 18.1117 19.926C18.1624 19.9934 18.2261 20.0482 18.2976 20.0891V21.7754C18.2976 22.0986 18.5604 22.3614 18.8835 22.3614H23.414C23.7371 22.3614 24 22.0986 24 21.7754V19.51C24 18.1882 23.0853 17.0486 21.8274 16.7412ZM2.31319 21.6581H1.00866V19.1414H2.31323L2.31319 21.6581ZM1.75762 10.0066L1.30289 9.66436C0.910547 8.92495 0.703125 8.08865 0.703125 7.24593C0.703125 5.03076 2.11097 3.06361 4.20628 2.35087C4.224 2.34482 4.24209 2.34196 4.25995 2.34196C4.32328 2.34196 4.38323 2.37825 4.41169 2.43871L5.78981 5.37051C5.80978 5.41303 5.80252 5.46323 5.7713 5.49829L3.73673 7.78368L1.75762 10.0066ZM8.49098 21.6582H7.44112L9.53419 9.14259L10.5596 9.28509L8.49098 21.6582ZM10.0919 16.3463H13.2151L13.4754 17.903H9.83166L10.0919 16.3463ZM10.2095 15.6432L10.4697 14.0869H12.8373L13.0975 15.6432H10.2095ZM12.7198 13.3838H10.5872L10.8475 11.8271H12.4595L12.7198 13.3838ZM9.45384 20.1629L9.71409 18.6061H13.593L13.8533 20.1629H9.45384ZM12.3419 11.1239H10.965L11.2562 9.38184L12.0694 9.49481L12.3419 11.1239ZM18.8382 17.1548C19.4434 16.5495 20.3998 16.4606 21.1029 16.9305L20.5897 17.4437C20.3488 17.6846 20.3488 18.0766 20.5897 18.3175L21.6241 19.3519L21.0353 19.9407L20.0009 18.9063C19.7595 18.6649 19.3686 18.6647 19.1271 18.9063L18.6139 19.4195C18.1441 18.7164 18.2331 17.76 18.8382 17.1548ZM23.2969 21.6582H19.0008V20.0234C19.0131 20.0129 19.0255 20.0024 19.0371 19.9908L19.564 19.4638L20.5985 20.4982C20.8398 20.7397 21.2308 20.7398 21.4723 20.4982L22.1816 19.7889C22.4231 19.5474 22.4231 19.1566 22.1816 18.915L21.1472 17.8806L21.6146 17.4131C22.5857 17.6276 23.2969 18.498 23.2969 19.5099V21.6582Z" fill="white" />
  <path d="M1.80825 8.05603H1.76025C1.5661 8.05603 1.40869 8.21339 1.40869 8.40759C1.40869 8.6018 1.5661 8.75916 1.76025 8.75916H1.80825C2.00241 8.75916 2.15982 8.6018 2.15982 8.40759C2.15982 8.21339 2.00241 8.05603 1.80825 8.05603Z" fill="white" />
  <path d="M3.92495 4.68665C3.92495 4.49244 3.76755 4.33508 3.57339 4.33508H3.52539C3.33123 4.33508 3.17383 4.49244 3.17383 4.68665C3.17383 4.88085 3.33123 5.03821 3.52539 5.03821H3.57339C3.76755 5.03821 3.92495 4.88085 3.92495 4.68665Z" fill="white" />
</svg>
