<svg width="24" height="25" viewBox="0 0 24 25" fill="none" xmlns="http://www.w3.org/2000/svg">
  <path d="M2.79213 14.632C2.40013 15.248 2.54813 16.08 3.12813 16.524L7.85613 20.132C8.75613 20.816 9.82413 21.176 10.9041 21.176C11.2721 21.176 11.6441 21.132 12.0121 21.048L17.3881 19.788L18.2281 20.16V20.348C18.2281 20.568 18.4081 20.748 18.6281 20.748H21.0281C21.2481 20.748 21.4281 20.568 21.4281 20.348V13.148C21.4281 12.928 21.2481 12.748 21.0281 12.748H18.6281C18.4081 12.748 18.2281 12.928 18.2281 13.148V13.736C16.8561 13.388 15.4761 13.636 14.1121 14.472H10.7641C9.80813 14.472 9.02813 15.252 9.02813 16.208C9.02813 16.26 9.04013 16.308 9.04413 16.36L4.63213 14.128C3.97613 13.796 3.18813 14.012 2.79213 14.632ZM20.6281 13.544V19.944H19.0281V19.904V13.544H20.6281ZM4.26813 14.84L9.76013 17.616C10.0441 17.82 10.3881 17.94 10.7641 17.94H14.2281C14.4481 17.94 14.6281 17.76 14.6281 17.54C14.6281 17.32 14.4481 17.14 14.2281 17.14H10.7641C10.2481 17.14 9.82813 16.72 9.82813 16.204C9.82813 15.688 10.2481 15.268 10.7641 15.268H14.2281C14.3041 15.268 14.3801 15.248 14.4441 15.204C15.7241 14.388 16.9681 14.184 18.2281 14.564V19.28L17.5881 19C17.5081 18.964 17.4201 18.956 17.3361 18.976L11.8281 20.268C10.6321 20.552 9.36013 20.268 8.34413 19.492L3.61613 15.888C3.36413 15.696 3.30013 15.332 3.46813 15.064C3.64013 14.792 3.98413 14.696 4.26813 14.84Z" fill="white" />
  <path d="M10.0722 6.592C9.3202 5.26 7.6122 4.38 4.7042 3.832C4.5682 3.808 4.4282 3.852 4.3322 3.956C4.2402 4.06 4.2042 4.204 4.2442 4.336C4.4402 5.004 4.5762 5.768 4.6442 6.604C4.7002 7.28 4.8842 7.916 5.1882 8.488C6.0682 10.14 7.1922 10.972 8.5442 10.972C8.6882 10.972 8.8362 10.964 8.9882 10.944C9.1042 10.928 9.2122 10.9 9.3202 10.856C9.6282 11.492 9.8602 12.252 9.9002 13.152C9.9082 13.368 10.0882 13.536 10.3002 13.536H10.3162C10.5362 13.528 10.7082 13.34 10.7002 13.12C10.6842 12.72 10.6282 12.344 10.5522 11.992C10.6562 11.644 10.8602 11.304 11.1682 10.968C11.4962 11.312 11.9362 11.528 12.4122 11.556C12.4722 11.56 12.5282 11.56 12.5882 11.56C13.2482 11.56 13.9002 11.336 14.5282 10.888C15.1562 10.44 15.6682 9.824 16.0202 9.096L16.9922 7.076C17.0482 6.96 17.0442 6.824 16.9842 6.712C16.9242 6.6 16.8122 6.524 16.6842 6.504C13.1802 6.024 11.1562 6.948 10.6722 9.26C10.6002 9.6 10.6322 9.944 10.7442 10.264C10.5402 10.468 10.3602 10.672 10.2122 10.884C10.1362 10.696 10.0522 10.516 9.9642 10.348C10.0282 10.256 10.0842 10.156 10.1242 10.048C10.6202 8.7 10.6042 7.536 10.0722 6.592ZM11.4482 9.424C11.7642 7.92 12.9322 7.176 14.9962 7.176C15.3162 7.176 15.6602 7.192 16.0202 7.228L15.2882 8.744C14.9962 9.348 14.5722 9.864 14.0562 10.232C13.5202 10.616 12.9922 10.784 12.4562 10.752C12.1842 10.736 11.9362 10.616 11.7482 10.424C12.6402 9.728 13.6642 9.344 13.6762 9.34C13.8842 9.264 13.9882 9.032 13.9122 8.828C13.8362 8.62 13.6042 8.516 13.4002 8.592C13.3522 8.608 12.3682 8.976 11.4282 9.668C11.4242 9.588 11.4322 9.508 11.4482 9.424ZM7.5562 7.728C7.3642 7.62 7.1202 7.684 7.0122 7.876C6.9002 8.068 6.9682 8.312 7.1602 8.424C7.2242 8.46 8.1522 9.016 8.9122 10.144C8.9042 10.144 8.8962 10.148 8.8882 10.152C7.6842 10.308 6.7082 9.64 5.8962 8.112C5.6442 7.636 5.4882 7.104 5.4442 6.536C5.3922 5.896 5.3002 5.296 5.1762 4.744C7.4322 5.244 8.8082 5.976 9.3762 6.984C9.7642 7.672 9.7842 8.504 9.4522 9.524C8.6042 8.348 7.6242 7.772 7.5562 7.728Z" fill="white" />
</svg>