<?xml version="1.0" encoding="utf-8"?><svg xmlns="http://www.w3.org/2000/svg" xmlns:xlink="http://www.w3.org/1999/xlink"><symbol fill="none" viewBox="0 0 24 24" id="burger" xmlns="http://www.w3.org/2000/svg"><path d="M3 7h18M3 12h18M3 17h18" stroke="currentColor" stroke-width="2" stroke-linecap="round"/></symbol><symbol fill="none" viewBox="0 0 7 5" id="check" xmlns="http://www.w3.org/2000/svg"><path d="M.5 2.5l1.998 2L6.5.5" stroke="currentColor" stroke-linecap="round" stroke-linejoin="round"/></symbol><symbol fill="none" viewBox="0 0 15 15" id="close" xmlns="http://www.w3.org/2000/svg"><path d="M14 1L1 14M1 1l13 13" stroke="currentColor" stroke-width="2" stroke-linecap="round" stroke-linejoin="round"/></symbol><symbol fill="none" viewBox="0 0 9 16" id="left-chevron" xmlns="http://www.w3.org/2000/svg"><path d="M8 15L1 8l7-7" stroke="currentColor" stroke-width="2" stroke-linecap="round" stroke-linejoin="round"/></symbol><symbol fill="none" viewBox="0 0 249 30" id="logo-congress-color" xmlns="http://www.w3.org/2000/svg"><path d="M39.32 14.867c0-2.726 1.697-4.294 4.834-4.294 1.407.011 2.807.201 4.166.566V8.363a15.784 15.784 0 00-4.16-.547c-4.886 0-8.023 2.91-8.023 7.02 0 4.01 3.162 6.993 7.79 6.993 1.672 0 3.318-.231 4.475-.59v-2.776a14.382 14.382 0 01-4.27.616c-3.089 0-4.812-1.646-4.812-4.212zM81.875 7.816c-4.448 0-7.379 2.83-7.379 6.994 0 4.115 2.931 7.02 7.945 7.02 2.237 0 3.856-.359 5.527-1.003v-2.673c-1.774.642-3.547 1.027-5.321 1.027-2.644 0-4.166-.976-4.732-2.725l11.03-1.518c0-4.37-2.518-7.122-7.07-7.122zm-4.191 6.866c.026-2.726 1.466-4.217 4.267-4.217 2.367 0 3.677 1.057 3.91 3.085l-8.177 1.132zM115.519 7.816c-1.8 0-3.835.386-6.017 1.19v2.82c2.005-.899 3.858-1.388 5.502-1.388 2.417 0 3.702 1.08 3.729 3.086h-4.706c-3.472 0-5.451 1.516-5.451 4.166 0 2.57 1.826 4.138 4.76 4.138 2.828 0 4.885-1.516 5.685-4.216h.051l-.334 3.856h3.111v-7.79c-.006-3.804-2.319-5.862-6.33-5.862zm3.214 7.844c0 1.954-2.134 3.57-4.551 3.57-1.62 0-2.52-.661-2.52-1.954 0-1.312.925-1.983 2.644-1.983h4.423l.004.367zM105.902 12.402a6.105 6.105 0 00-1.455-2.283 7.457 7.457 0 00-2.122-1.444c-.722-.33-1.48-.58-2.258-.74a15.902 15.902 0 00-2.238-.302 18.463 18.463 0 00-2.214-.008 22.742 22.742 0 00-5.113.94l.54 2.878c.325-.083.65-.162.978-.231a20.16 20.16 0 013.733-.506c.618-.015 1.236.002 1.851.05.6.047 1.196.135 1.784.264 1.139.265 2.172.71 2.818 1.362.319.311.564.69.718 1.108.161.455.236.937.221 1.42a3.487 3.487 0 01-1.076 2.526c-.697.696-1.719 1.17-2.833 1.41a9.708 9.708 0 01-2.777.178 31.278 31.278 0 00.162-6.953l-3.2.434a27.774 27.774 0 01-2.471 14.006l2.92 1.37a30.96 30.96 0 002.084-6.09c1.276.19 2.574.181 3.848-.027 1.535-.285 3.11-.898 4.392-2.08.321-.298.614-.626.875-.978a6.537 6.537 0 001.244-3.731 7.42 7.42 0 00-.078-1.281 6.47 6.47 0 00-.333-1.292zM72.189 13.302a2.87 2.87 0 00-.132-.502 5.333 5.333 0 00-.414-.972c-.086-.155-.167-.313-.265-.46l-.314-.42-.16-.208c-.054-.067-.118-.124-.177-.186l-.363-.361c-.247-.232-.517-.418-.778-.622-.273-.165-.545-.342-.824-.486a8.494 8.494 0 00-.842-.382 13.518 13.518 0 00-3.333-.824c-.26.957-.466 1.928-.616 2.909l.141.02c.9.137 1.78.386 2.618.742.198.085.373.19.562.282.189.091.335.214.507.316.133.124.3.231.427.358l.184.192c.032.03.063.061.09.095l.073.103a3.305 3.305 0 010 3.842l-.072.105c-.025.034-.062.062-.09.095l-.183.19c-.132.133-.288.234-.427.359-.172.1-.33.214-.508.314s-.364.197-.562.28c-.837.358-1.716.608-2.616.742-.53.096-1.058.16-1.608.21a28.065 28.065 0 01-.319-4.204 27.764 27.764 0 012.57-11.691l-2.923-1.372a30.942 30.942 0 00-2.058 5.978c-1.719.037-3.476.265-5.245.952-.281.108-.563.253-.843.383-.28.131-.55.324-.823.49-.264.203-.529.396-.778.62l-.364.362c-.06.062-.122.119-.177.186l-.16.208-.313.422c-.096.146-.176.305-.265.46-.17.309-.309.634-.414.972a2.8 2.8 0 00-.132.503l-.103.508c-.045.336-.056.669-.074 1.003.021.335.032.662.077 1.004l.103.508c.029.171.073.34.132.503.105.337.244.663.414.972.086.153.166.313.264.46l.315.42.161.207c.054.069.118.124.177.186l.363.363c.247.23.517.416.778.62.273.165.545.343.824.487.279.145.56.274.842.383 1.188.456 2.434.747 3.702.863a31.655 31.655 0 01-.516-3.085 10.06 10.06 0 01-1.99-.622c-.199-.084-.375-.19-.564-.28-.189-.09-.334-.216-.506-.318-.14-.124-.3-.23-.427-.357l-.184-.192a1.206 1.206 0 01-.09-.095l-.073-.104a3.305 3.305 0 010-3.842l.072-.103c.028-.034.059-.066.09-.096l.183-.191c.133-.133.289-.234.427-.359.17-.1.33-.214.507-.313.177-.1.365-.197.563-.282a10.704 10.704 0 012.616-.741c.295-.053.594-.095.896-.132a31.349 31.349 0 00-.277 4.147 30.96 30.96 0 002.873 13.058l2.92-1.368a27.778 27.778 0 01-1.667-4.64c1.587-.063 3.205-.303 4.834-.94.282-.108.563-.252.842-.381.28-.13.55-.324.824-.49.264-.204.529-.396.779-.62l.363-.362c.058-.062.122-.119.177-.186l.16-.208.314-.422c.095-.148.175-.306.264-.461.17-.31.309-.635.414-.972a2.87 2.87 0 00.132-.504l.102-.507c.046-.336.057-.67.075-1.004-.02-.334-.031-.667-.076-1.003l-.106-.512z" fill="#0A0D20"/><path d="M133.011 16.003h-2.616v5.465h-2.415V8.123h2.409v5.7h2.565c2.849 0 4.351-2.358 4.585-5.7h2.409c-.234 3.627-1.709 5.83-4.611 6.61v.052l.933.156c1.761.286 2.72 1.27 3.437 2.85l1.633 3.677h-2.776l-1.216-3.003c-.71-1.763-2.29-2.462-4.337-2.462zM142.439 14.811c0-4.118 3.238-7.045 7.642-7.045 4.353 0 7.59 2.927 7.59 7.045s-3.237 7.02-7.59 7.02c-4.404 0-7.642-2.902-7.642-7.02zm12.745-.026c0-2.823-1.968-4.818-5.103-4.818-3.186 0-5.156 1.995-5.156 4.818 0 2.85 1.969 4.87 5.156 4.87 3.135 0 5.103-2.013 5.103-4.87zM171.476 16.005h-8.419v5.465h-2.409V8.125h2.409v5.7h8.419v-5.7h2.409v13.34h-2.409v-5.46zM177.691 8.123h9.739v2.208h-7.33v11.137h-2.409V8.123zM190.072 8.125h2.409l-.284 3.731h.051c.803-2.538 3.082-4.098 6.009-4.098 3.967 0 6.735 2.875 6.735 6.967 0 4.171-3.108 7.099-7.589 7.099-1.917 0-3.445-.545-4.922-1.763v6.58h-2.409V8.125zM202.5 14.81c0-3.057-1.839-4.845-4.999-4.845-3.16 0-5.024 1.788-5.024 4.845 0 3.03 1.866 4.844 5 4.844 3.164.005 5.028-1.809 5.028-4.84l-.005-.004zM207.174 14.811c0-4.145 2.926-7.045 7.271-7.045 4.429 0 6.916 2.824 6.865 7.175l-11.423 1.631c.595 1.969 2.228 3.083 5.05 3.083 1.839 0 3.602-.415 5.388-1.036v2.227c-1.587.622-3.16.985-5.413.985-4.843 0-7.738-2.98-7.738-7.02zm11.655-1.425c-.264-2.201-1.739-3.412-4.384-3.412-3.134 0-4.759 1.684-4.792 4.714l9.176-1.302zM223.305 14.813c0-4.098 3.108-7.045 7.849-7.045a15.31 15.31 0 014.092.543v2.254a14.34 14.34 0 00-4.092-.596c-3.472 0-5.362 1.814-5.362 4.87 0 2.928 1.917 4.818 5.336 4.818 1.631 0 3.056-.234 4.196-.648v2.228c-1.14.363-2.746.596-4.378.596-4.532 0-7.641-3.031-7.641-7.02zM236.982 14.813c0-4.098 3.109-7.045 7.848-7.045a15.316 15.316 0 014.099.543v2.254a14.351 14.351 0 00-4.099-.596c-3.47 0-5.362 1.814-5.362 4.87 0 2.928 1.917 4.818 5.336 4.818 1.633 0 3.057-.234 4.196-.648v2.228c-1.139.363-2.744.597-4.377.597-4.528 0-7.641-3.032-7.641-7.02zM20.954 15.824a27.749 27.749 0 00-.06-1.058c-.027-.349-.055-.709-.09-1.057a39.133 39.133 0 00-.29-2.116 29.172 29.172 0 00-.44-2.09 24.52 24.52 0 00-1.364-4.035c-.071-.163-.15-.321-.225-.483-.075-.161-.16-.314-.238-.474a14.395 14.395 0 00-.519-.926 11.146 11.146 0 00-1.25-1.7l-.18-.192-.09-.096-.094-.09-.19-.181c-.066-.06-.133-.114-.2-.17-.133-.12-.274-.219-.414-.325-.07-.054-.146-.095-.22-.144-.074-.049-.145-.099-.224-.132l-.232-.124c-.078-.041-.16-.073-.24-.109l-.122-.054c-.041-.016-.083-.029-.126-.044-.083-.027-.168-.06-.253-.084h-.01A4.081 4.081 0 0012.11.063 14.653 14.653 0 00.052 15.721c.05.563.22 1.11.502 1.6v.01c.045.077.096.15.144.226l.071.111.082.105c.056.07.106.141.164.209l.179.194c.057.067.132.126.188.186.055.061.124.123.193.179.132.11.264.226.415.325l.214.152.223.142c.144.097.306.175.456.264.626.329 1.28.597 1.957.801.339.106.68.199 1.026.28.175.036.345.081.52.115.174.035.349.07.529.1 1.407.236 2.831.348 4.258.334.713-.01 1.427-.034 2.138-.091a28.753 28.753 0 002.127-.242 37.87 37.87 0 002.106-.385 31.783 31.783 0 002.06-.529c.424-.124.842-.264 1.257-.41.045-.474.077-.95.094-1.427a34.18 34.18 0 00-.001-2.146z" fill="#A81B8D"/><path d="M17.981 2.095c.155.114.303.234.451.356a14.34 14.34 0 01.83.78l.195.209c.065.07.132.141.188.214a15.19 15.19 0 011.343 1.823 20.397 20.397 0 011.92 4.057c.12.353.241.707.343 1.065.102.358.202.72.296 1.08.179.725.324 1.455.445 2.194.206 1.303.312 2.62.314 3.94.38-.182.754-.37 1.116-.57.142-.076.275-.158.415-.234.14-.077.271-.16.404-.244.264-.168.528-.338.778-.528.51-.36.974-.782 1.38-1.255.446-.54.771-1.17.952-1.847A14.002 14.002 0 0015.561.953c.126.024.252.055.375.091a6.518 6.518 0 012.045 1.051zM18.704 27.445a7.64 7.64 0 00.844-1.653c.356-.973.628-1.974.814-2.993a25.63 25.63 0 01-6.048.777c-.374 0-.747 0-1.12-.017a39.55 39.55 0 01-1.119-.066 20.37 20.37 0 01-4.405-.85c-.18-.057-.357-.122-.529-.183-.172-.06-.354-.132-.529-.2a15.36 15.36 0 01-1.035-.465 3.085 3.085 0 01-.254-.132l-.25-.132c-.166-.091-.327-.194-.49-.292-.163-.098-.319-.21-.477-.316a5.455 5.455 0 01-.456-.35 6.514 6.514 0 01-1.523-1.718 3.791 3.791 0 01-.193-.36 14.006 14.006 0 0015.3 10.345 4.59 4.59 0 001.47-1.395zM27.94 18.737a9.536 9.536 0 01-.853.832c-.59.51-1.227.964-1.901 1.356-.387.224-.78.43-1.18.616-.083.449-.185.895-.308 1.337a12.48 12.48 0 01-.84 2.183 9.533 9.533 0 01-1.327 1.999c-.264.304-.683.75-1.035.966a14.02 14.02 0 008.898-11.538c-.178.463-.414.901-.703 1.304a8.607 8.607 0 01-.752.945z" fill="#A81B8D"/></symbol><symbol fill="none" viewBox="0 0 249 29" id="logo-congress-dark" xmlns="http://www.w3.org/2000/svg"><path d="M39.32 14.867c0-2.726 1.697-4.294 4.834-4.294 1.407.011 2.807.201 4.166.566V8.363a15.784 15.784 0 00-4.16-.547c-4.886 0-8.023 2.91-8.023 7.02 0 4.01 3.162 6.993 7.79 6.993 1.672 0 3.318-.231 4.475-.59v-2.776a14.382 14.382 0 01-4.27.616c-3.089 0-4.812-1.646-4.812-4.212zM81.875 7.816c-4.448 0-7.379 2.83-7.379 6.994 0 4.115 2.931 7.02 7.945 7.02 2.237 0 3.856-.359 5.527-1.003v-2.673c-1.774.642-3.547 1.027-5.321 1.027-2.644 0-4.166-.976-4.732-2.725l11.03-1.518c0-4.37-2.518-7.122-7.07-7.122zm-4.191 6.866c.026-2.726 1.466-4.217 4.267-4.217 2.367 0 3.677 1.057 3.91 3.085l-8.177 1.132zM115.519 7.816c-1.8 0-3.835.386-6.017 1.19v2.82c2.005-.899 3.858-1.388 5.502-1.388 2.417 0 3.702 1.08 3.729 3.086h-4.706c-3.472 0-5.451 1.516-5.451 4.166 0 2.57 1.826 4.138 4.76 4.138 2.828 0 4.885-1.516 5.685-4.216h.051l-.334 3.856h3.111v-7.79c-.006-3.804-2.319-5.862-6.33-5.862zm3.214 7.844c0 1.954-2.134 3.57-4.551 3.57-1.62 0-2.52-.661-2.52-1.954 0-1.312.925-1.983 2.644-1.983h4.423l.004.367zM105.902 12.402a6.105 6.105 0 00-1.455-2.283 7.457 7.457 0 00-2.122-1.444c-.722-.33-1.48-.58-2.258-.74a15.902 15.902 0 00-2.238-.302 18.463 18.463 0 00-2.214-.008 22.742 22.742 0 00-5.113.94l.54 2.878c.325-.083.65-.162.978-.231a20.16 20.16 0 013.733-.506c.618-.015 1.236.002 1.851.05.6.047 1.196.135 1.784.264 1.139.265 2.172.71 2.818 1.362.319.311.564.69.718 1.108.161.455.236.937.221 1.42a3.487 3.487 0 01-1.076 2.526c-.697.696-1.719 1.17-2.833 1.41a9.708 9.708 0 01-2.777.178 31.278 31.278 0 00.162-6.953l-3.2.434a27.774 27.774 0 01-2.471 14.006l2.92 1.37a30.96 30.96 0 002.084-6.09c1.276.19 2.574.181 3.848-.027 1.535-.285 3.11-.898 4.392-2.08.321-.298.614-.626.875-.978a6.537 6.537 0 001.244-3.731 7.42 7.42 0 00-.078-1.281 6.47 6.47 0 00-.333-1.292zM72.189 13.302a2.87 2.87 0 00-.132-.502 5.333 5.333 0 00-.414-.972c-.086-.155-.167-.313-.265-.46l-.314-.42-.16-.208c-.054-.067-.118-.124-.177-.186l-.363-.361c-.247-.232-.517-.418-.778-.622-.273-.165-.545-.342-.824-.486a8.494 8.494 0 00-.842-.382 13.518 13.518 0 00-3.333-.824c-.26.957-.466 1.928-.616 2.909l.141.02c.9.137 1.78.386 2.618.742.198.085.373.19.562.282.189.091.335.214.507.316.133.124.3.231.427.358l.184.192c.032.03.063.061.09.095l.073.103a3.305 3.305 0 010 3.842l-.072.105c-.025.034-.062.062-.09.095l-.183.19c-.132.133-.288.234-.427.359-.172.1-.33.214-.508.314s-.364.197-.562.28c-.837.358-1.716.608-2.616.742-.53.096-1.058.16-1.608.21a28.065 28.065 0 01-.319-4.204 27.764 27.764 0 012.57-11.691l-2.923-1.372a30.942 30.942 0 00-2.058 5.978c-1.719.037-3.476.265-5.245.952-.281.108-.563.253-.843.383-.28.131-.55.324-.823.49-.264.203-.529.396-.778.62l-.364.362c-.06.062-.122.119-.177.186l-.16.208-.313.422c-.096.146-.176.305-.265.46-.17.309-.309.634-.414.972a2.8 2.8 0 00-.132.503l-.103.508c-.045.336-.056.669-.074 1.003.021.335.032.662.077 1.004l.103.508c.029.171.073.34.132.503.105.337.244.663.414.972.086.153.166.313.264.46l.315.42.161.207c.054.069.118.124.177.186l.363.363c.247.23.517.416.778.62.273.165.545.343.824.487.279.145.56.274.842.383 1.188.456 2.434.747 3.702.863a31.655 31.655 0 01-.516-3.085 10.06 10.06 0 01-1.99-.622c-.199-.084-.375-.19-.564-.28-.189-.09-.334-.216-.506-.318-.14-.124-.3-.23-.427-.357l-.184-.192a1.206 1.206 0 01-.09-.095l-.073-.104a3.305 3.305 0 010-3.842l.072-.103c.028-.034.059-.066.09-.096l.183-.191c.133-.133.289-.234.427-.359.17-.1.33-.214.507-.313.177-.1.365-.197.563-.282a10.704 10.704 0 012.616-.741c.295-.053.594-.095.896-.132a31.349 31.349 0 00-.277 4.147 30.96 30.96 0 002.873 13.058l2.92-1.368a27.778 27.778 0 01-1.667-4.64c1.587-.063 3.205-.303 4.834-.94.282-.108.563-.252.842-.381.28-.13.55-.324.824-.49.264-.204.529-.396.779-.62l.363-.362c.058-.062.122-.119.177-.186l.16-.208.314-.422c.095-.148.175-.306.264-.461.17-.31.309-.635.414-.972a2.87 2.87 0 00.132-.504l.102-.507c.046-.336.057-.67.075-1.004-.02-.334-.031-.667-.076-1.003l-.106-.512zM133.011 16.005h-2.616v5.465h-2.415V8.125h2.409v5.7h2.565c2.849 0 4.351-2.358 4.585-5.7h2.409c-.234 3.627-1.709 5.83-4.611 6.61v.052l.933.156c1.761.286 2.72 1.27 3.437 2.85l1.633 3.677h-2.776l-1.216-3.004c-.71-1.762-2.29-2.461-4.337-2.461zM142.439 14.813c0-4.118 3.238-7.045 7.642-7.045 4.353 0 7.59 2.927 7.59 7.045s-3.237 7.02-7.59 7.02c-4.404 0-7.642-2.902-7.642-7.02zm12.745-.026c0-2.823-1.968-4.818-5.103-4.818-3.186 0-5.156 1.995-5.156 4.818 0 2.85 1.969 4.87 5.156 4.87 3.135 0 5.103-2.013 5.103-4.87zM171.476 16.005h-8.419v5.465h-2.409V8.125h2.409v5.7h8.419v-5.7h2.409v13.34h-2.409v-5.46zM177.691 8.125h9.739v2.208h-7.33V21.47h-2.409V8.125zM190.072 8.123h2.409l-.284 3.731h.051c.803-2.538 3.082-4.098 6.009-4.098 3.967 0 6.735 2.875 6.735 6.967 0 4.171-3.108 7.099-7.589 7.099-1.917 0-3.445-.545-4.922-1.763v6.58h-2.409V8.123zm12.428 6.684c0-3.057-1.839-4.845-4.999-4.845-3.16 0-5.024 1.788-5.024 4.845 0 3.03 1.866 4.844 5 4.844 3.164.005 5.028-1.809 5.028-4.84l-.005-.004zM207.176 14.813c0-4.145 2.926-7.045 7.271-7.045 4.429 0 6.916 2.824 6.865 7.175l-11.423 1.631c.595 1.969 2.227 3.083 5.05 3.083 1.839 0 3.602-.415 5.388-1.036v2.227c-1.587.622-3.16.985-5.413.985-4.843 0-7.738-2.98-7.738-7.02zm11.655-1.425c-.264-2.201-1.739-3.413-4.384-3.413-3.134 0-4.759 1.685-4.792 4.715l9.176-1.302zM223.305 14.813c0-4.098 3.108-7.045 7.849-7.045a15.31 15.31 0 014.092.543v2.254a14.34 14.34 0 00-4.092-.596c-3.472 0-5.362 1.814-5.362 4.87 0 2.928 1.917 4.818 5.336 4.818 1.631 0 3.056-.234 4.196-.648v2.228c-1.14.363-2.746.596-4.378.596-4.532 0-7.641-3.031-7.641-7.02zM236.982 14.813c0-4.098 3.109-7.045 7.848-7.045a15.316 15.316 0 014.099.543v2.254a14.351 14.351 0 00-4.099-.596c-3.47 0-5.362 1.814-5.362 4.87 0 2.928 1.917 4.818 5.336 4.818 1.633 0 3.057-.234 4.196-.648v2.228c-1.139.363-2.744.597-4.377.597-4.528 0-7.641-3.032-7.641-7.02zM20.954 15.824a27.749 27.749 0 00-.06-1.058c-.027-.349-.055-.709-.09-1.057a39.133 39.133 0 00-.29-2.116 29.172 29.172 0 00-.44-2.09 24.52 24.52 0 00-1.364-4.035c-.071-.163-.15-.321-.225-.483-.075-.161-.16-.314-.238-.474a14.395 14.395 0 00-.519-.926 11.146 11.146 0 00-1.25-1.7l-.18-.192-.09-.096-.094-.09-.19-.181c-.066-.06-.133-.114-.2-.17-.133-.12-.274-.219-.414-.325-.07-.054-.146-.095-.22-.144-.074-.049-.145-.099-.224-.132l-.232-.124c-.078-.041-.16-.073-.24-.109l-.122-.054c-.041-.016-.083-.029-.126-.044-.083-.027-.168-.06-.253-.084h-.01A4.081 4.081 0 0012.11.063 14.653 14.653 0 00.052 15.721c.05.563.22 1.11.502 1.6v.01c.045.077.096.15.144.226l.071.111.082.105c.056.07.106.141.164.209l.179.194c.057.067.132.126.188.186.055.061.124.123.193.179.132.11.264.226.415.325l.214.152.223.142c.144.097.306.175.456.264.626.329 1.28.597 1.957.801.339.106.68.199 1.026.28.175.036.345.081.52.115.174.035.349.07.529.1 1.407.236 2.831.348 4.258.334.713-.01 1.427-.034 2.138-.091a28.753 28.753 0 002.127-.242 37.87 37.87 0 002.106-.385 31.783 31.783 0 002.06-.529c.424-.124.842-.264 1.257-.41.045-.474.077-.95.094-1.427a34.18 34.18 0 00-.001-2.146z" fill="currentColor"/><path d="M17.983 2.095c.155.114.303.234.451.356a14.48 14.48 0 01.83.78l.195.209c.064.07.132.141.188.214a15.232 15.232 0 011.343 1.823 20.392 20.392 0 011.92 4.057c.12.353.241.707.343 1.065.102.358.202.72.296 1.08.179.725.324 1.455.445 2.194.207 1.303.312 2.62.314 3.94.38-.182.754-.37 1.116-.57.142-.076.275-.158.415-.234.14-.077.271-.16.403-.244.265-.168.53-.338.78-.528.509-.36.972-.782 1.38-1.255.445-.54.77-1.17.951-1.847A14.003 14.003 0 0015.563.953c.126.024.252.055.375.091a6.519 6.519 0 012.045 1.051zM18.704 27.445a7.64 7.64 0 00.844-1.653c.356-.973.628-1.974.814-2.993a25.63 25.63 0 01-6.048.777c-.374 0-.747 0-1.12-.017a39.55 39.55 0 01-1.119-.066 20.37 20.37 0 01-4.405-.85c-.18-.057-.357-.122-.529-.183-.172-.06-.354-.132-.529-.2a15.36 15.36 0 01-1.035-.465 3.085 3.085 0 01-.254-.132l-.25-.132c-.166-.091-.327-.194-.49-.292-.163-.098-.319-.21-.477-.316a5.455 5.455 0 01-.456-.35 6.514 6.514 0 01-1.523-1.718 3.791 3.791 0 01-.193-.36 14.006 14.006 0 0015.3 10.345 4.59 4.59 0 001.47-1.395zM27.94 18.74a9.536 9.536 0 01-.853.83c-.59.511-1.227.965-1.901 1.357-.387.224-.78.43-1.18.616-.083.449-.185.895-.308 1.337a12.473 12.473 0 01-.84 2.183 9.524 9.524 0 01-1.327 1.999c-.264.304-.683.75-1.035.966a14.02 14.02 0 008.898-11.538c-.178.463-.414.901-.703 1.304a8.598 8.598 0 01-.752.945z" fill="currentColor"/></symbol><symbol fill="none" viewBox="0 0 163 29" id="logo-media-group" xmlns="http://www.w3.org/2000/svg"><path d="M128.288 9.558h-.02l.05 1.305v2.28h-.907l-.01-5.018h1.053l2.153 3.595 2.154-3.595h1.052l-.01 5.018h-.906v-2.28l.049-1.305h-.02l-2.299 3.722h-.039l-2.3-3.722zM135.173 10.639c0-1.56 1.101-2.65 2.738-2.65 1.638 0 2.601 1.06 2.583 2.698l-4.298.615c.224.74.838 1.16 1.9 1.16.692 0 1.355-.156 2.027-.39v.837c-.595.235-1.189.371-2.036.371-1.823 0-2.914-1.12-2.914-2.64m4.386-.537c-.098-.829-.653-1.287-1.648-1.287-1.179 0-1.792.634-1.802 1.773l3.45-.487zM141.095 12.325h.633c.243-.448.38-.993.38-1.832V8.125h4.463v4.2h.731v2.086h-.906v-1.268h-4.395v1.268h-.906v-2.086zm4.57 0V8.953h-2.651v1.55c0 .818-.127 1.364-.321 1.822h2.972zM148.353 8.125h.906v2.591l-.02 1.306h.02l3.235-3.897h.975v5.018h-.907v-2.582l.019-1.306h-.019l-3.235 3.888h-.974V8.125zM154.83 11.691c0-1.004.77-1.588 2.086-1.588h1.852c0-.838-.517-1.287-1.481-1.287-.615 0-1.335.185-2.096.537v-.897c.8-.311 1.541-.468 2.193-.468 1.431 0 2.29.79 2.29 2.203v2.953h-.906l.097-1.404h-.02c-.302.974-1.101 1.54-2.163 1.54-1.131 0-1.852-.614-1.852-1.587m3.937-.752v-.127h-1.881c-.731 0-1.121.283-1.121.82 0 .535.38.827 1.062.827 1.033 0 1.939-.701 1.939-1.52M127.401 16.297h3.664v.828h-2.757v4.19h-.907v-5.018zM132.299 16.297h.906l-.108 1.403h.02c.302-.955 1.16-1.54 2.261-1.54 1.491 0 2.534 1.081 2.534 2.621s-1.17 2.67-2.856 2.67c-.721 0-1.296-.204-1.851-.663v2.475h-.906v-6.967zm4.678 2.514c0-1.15-.692-1.823-1.881-1.823s-1.89.673-1.89 1.823.702 1.822 1.881 1.822 1.89-.682 1.89-1.822zM138.904 23.177v-.838c.496.175.74.244 1.139.244.449 0 .732-.244.887-.77l.108-.36-2.534-5.154h.956l2.016 4.063 1.666-4.063h.936l-2.094 5.018c-.575 1.374-.741 2.085-1.911 2.085-.438 0-.731-.078-1.169-.224M149.182 17.125h-3.137v4.19h-.907v-5.018h4.951v5.018h-.907v-4.19zM155.805 17.125h-3.137v4.19h-.907v-5.018h4.951v5.018h-.907v-4.19zM158.073 19.863c0-1.004.77-1.589 2.086-1.589h1.852c0-.838-.517-1.286-1.481-1.286-.615 0-1.335.185-2.096.537v-.897c.8-.311 1.54-.468 2.193-.468 1.432 0 2.289.79 2.289 2.203v2.953h-.906l.097-1.403h-.019c-.302.974-1.101 1.54-2.163 1.54-1.131 0-1.852-.615-1.852-1.589m3.938-.752v-.126h-1.881c-.73 0-1.121.283-1.121.819s.38.828 1.062.828c1.033 0 1.939-.701 1.939-1.52M38.718 14.774c0-2.71 1.688-4.27 4.808-4.27 1.407 0 2.737.204 4.144.561V8.303a15.727 15.727 0 00-4.144-.537c-4.859 0-7.98 2.89-7.98 6.982 0 4.092 3.147 6.956 7.75 6.956 1.663 0 3.3-.23 4.45-.588v-2.762c-1.201.383-2.684.613-4.245.613-3.069 0-4.782-1.636-4.782-4.194l-.001.001zM81.045 7.766c-4.424 0-7.34 2.812-7.34 6.956 0 4.143 2.916 6.982 7.903 6.982 2.225 0 3.837-.357 5.5-.997v-2.66c-1.766.64-3.53 1.023-5.295 1.023-2.635 0-4.142-.971-4.706-2.71l10.973-1.51c0-4.347-2.506-7.084-7.034-7.084zm-4.169 6.828c.026-2.71 1.458-4.195 4.245-4.195 2.353 0 3.657 1.05 3.888 3.07l-8.134 1.124.001.001zM114.51 7.767c-1.789 0-3.811.383-5.984 1.176v2.813c1.994-.895 3.836-1.381 5.473-1.381 2.404 0 3.682 1.074 3.708 3.069h-4.681c-3.453 0-5.422 1.508-5.422 4.143s1.816 4.117 4.732 4.117c2.915 0 4.858-1.509 5.652-4.194h.051l-.332 3.837h3.095v-7.75c0-3.785-2.303-5.831-6.292-5.831zm3.198 7.8c0 1.944-2.123 3.556-4.527 3.556-1.612 0-2.507-.665-2.507-1.945 0-1.279.921-1.97 2.634-1.97h4.399v.359h.001zM104.947 12.327a6.064 6.064 0 00-1.454-2.27 7.417 7.417 0 00-2.111-1.436 10.524 10.524 0 00-2.247-.737 16.044 16.044 0 00-2.227-.3 17.95 17.95 0 00-2.201-.007c-1.476.09-2.893.348-4.27.703a25.61 25.61 0 00-.816.232l.535 2.863c.324-.083.648-.16.974-.23 1.243-.275 2.495-.466 3.715-.504a18.18 18.18 0 011.84.05c.609.051 1.204.136 1.773.265 1.133.257 2.16.705 2.803 1.354.322.323.562.682.713 1.104.157.414.228.905.221 1.412-.002.973-.377 1.825-1.071 2.513-.693.692-1.713 1.164-2.818 1.402-.879.196-1.815.242-2.761.177a31.01 31.01 0 00.16-6.916l-3.182.432c.062.76.096 1.528.096 2.303 0 4.15-.916 8.09-2.555 11.628l2.905 1.362a30.759 30.759 0 002.073-6.057c1.243.18 2.533.187 3.827-.028 1.526-.283 3.095-.893 4.369-2.069.313-.296.61-.616.869-.972.256-.36.484-.742.666-1.149.364-.813.554-1.7.572-2.562a7.307 7.307 0 00-.078-1.275 6.27 6.27 0 00-.322-1.285l.002-.003zM71.417 13.222a2.953 2.953 0 00-.136-.5c-.118-.331-.23-.664-.412-.967-.085-.154-.165-.312-.26-.459l-.313-.417-.16-.206c-.055-.067-.117-.123-.177-.185l-.36-.359c-.247-.23-.515-.415-.776-.617-.27-.165-.54-.342-.819-.485-.279-.128-.557-.272-.838-.38a13.54 13.54 0 00-3.315-.82c-.26.95-.463 1.914-.614 2.889l.141.022c.93.15 1.822.391 2.604.737.198.083.372.19.56.279.175.101.333.213.504.314.137.124.298.23.425.356l.182.191c.03.032.065.06.09.095l.071.104c.401.536.61 1.154.61 1.912-.005.757-.207 1.377-.613 1.91l-.07.103c-.026.035-.061.062-.09.095l-.183.191c-.126.126-.287.233-.424.356-.17.101-.329.214-.505.313-.189.088-.362.196-.559.279-.78.345-1.672.59-2.602.738-.522.095-1.058.158-1.599.208a27.886 27.886 0 01-.317-4.181c0-4.15.917-8.09 2.555-11.629l-2.905-1.36a30.721 30.721 0 00-2.047 5.946c-1.71.037-3.458.26-5.217.948-.28.108-.56.251-.839.38-.276.146-.547.322-.818.487-.26.203-.528.388-.775.617l-.36.36c-.06.062-.122.117-.177.185l-.16.206-.312.42c-.094.147-.175.304-.26.458-.183.303-.294.636-.413.966a2.755 2.755 0 00-.135.5l-.102.506c-.045.335-.056.665-.074.999.02.333.032.663.076.998l.102.505c.035.169.07.336.136.501.117.33.229.663.411.967.085.153.165.311.261.458l.313.417.16.206c.055.067.117.124.176.185l.361.36c.247.229.515.414.775.617.271.164.541.341.82.484.278.128.556.273.837.38 1.234.484 2.463.737 3.678.86a31.906 31.906 0 01-.513-3.069 10.087 10.087 0 01-1.98-.62c-.198-.082-.372-.19-.56-.278-.175-.102-.334-.214-.504-.315-.138-.124-.299-.23-.425-.356l-.182-.191c-.03-.032-.066-.06-.09-.095l-.072-.104c-.4-.536-.61-1.154-.61-1.911.006-.758.208-1.378.613-1.91l.071-.104c.025-.034.06-.062.09-.095l.183-.19c.125-.126.286-.233.424-.357.17-.1.328-.213.505-.313.188-.088.362-.195.559-.278.78-.346 1.672-.59 2.602-.738.293-.054.591-.095.891-.132a31.02 31.02 0 00-.276 4.125c0 4.636 1.025 9.036 2.858 12.989l2.905-1.361a27.539 27.539 0 01-1.655-4.62c1.58-.063 3.189-.302 4.807-.935.281-.107.56-.251.84-.38.275-.146.546-.322.817-.486.26-.203.529-.388.775-.618l.361-.359c.059-.062.122-.118.176-.186l.16-.206.312-.42c.094-.147.175-.304.26-.457.184-.304.294-.636.413-.967.066-.164.102-.332.136-.5l.102-.506c.045-.335.057-.665.075-.998-.021-.334-.032-.664-.076-.999l-.102-.505-.002.002zM20.727 15.67c-.014-.35-.032-.701-.058-1.051a31.07 31.07 0 00-.088-1.052c-.075-.7-.175-1.397-.29-2.093-.119-.694-.27-1.382-.433-2.067a24.235 24.235 0 00-1.35-3.992c-.071-.16-.148-.318-.223-.477-.073-.16-.159-.312-.235-.47-.16-.311-.332-.617-.514-.914a11.112 11.112 0 00-1.235-1.682l-.178-.19-.09-.095-.093-.09-.19-.178c-.064-.059-.13-.113-.196-.17-.13-.117-.271-.214-.41-.32-.07-.053-.144-.093-.216-.142-.074-.045-.145-.098-.222-.135l-.23-.124c-.077-.04-.158-.07-.238-.107l-.12-.053c-.041-.016-.083-.029-.125-.044-.083-.027-.166-.058-.25-.083l-.01-.003A4.008 4.008 0 0011.98.063C4.607 1.355-.58 8.082.052 15.551c.048.557.222 1.096.497 1.583l.005.009c.044.076.095.149.142.223l.073.11.08.104c.055.07.106.14.162.206l.177.193c.055.066.124.122.186.183.064.058.123.121.191.177.137.11.264.224.41.321l.212.15.221.14c.143.097.302.174.451.261.613.332 1.268.583 1.936.793.335.105.673.196 1.015.276.173.037.342.081.515.115.173.032.344.069.517.099 1.387.24 2.8.335 4.211.329.706-.01 1.412-.034 2.115-.09a38.4 38.4 0 002.104-.238c.349-.054.696-.111 1.043-.176.347-.06.691-.13 1.035-.204.687-.15 1.367-.329 2.039-.527.42-.122.833-.26 1.243-.406.045-.47.077-.94.093-1.413.024-.698.027-1.398.002-2.1v.001z" fill="currentColor"/><path d="M17.79 2.09c.153.113.3.231.447.352.14.126.284.25.42.38.133.133.273.261.401.399a13.225 13.225 0 01.378.418c.244.284.478.578.7.879.222.3.429.611.629.926.79 1.262 1.409 2.618 1.9 4.01.12.35.239.7.34 1.055.109.354.2.71.293 1.068.177.716.32 1.44.439 2.169.203 1.284.31 2.587.312 3.898.375-.18.744-.367 1.104-.565.14-.074.27-.155.41-.23.13-.082.268-.159.398-.242.263-.165.523-.334.77-.518.496-.363.966-.761 1.365-1.24a4.83 4.83 0 00.945-1.838C28.13 6.069 22.223.997 15.399.96c.125.025.25.054.371.09.735.21 1.41.592 2.022 1.04l-.001-.001zM18.502 27.165c.355-.508.615-1.062.835-1.634.36-.942.607-1.937.807-2.955a25.1 25.1 0 01-3.772.652c-.735.066-1.472.107-2.21.115-.37 0-.739 0-1.108-.017-.369-.01-.738-.038-1.106-.066-1.472-.128-2.937-.39-4.357-.84-.177-.057-.353-.12-.53-.18-.175-.062-.35-.131-.523-.199a15.283 15.283 0 01-1.274-.587 10.083 10.083 0 01-.247-.134c-.164-.09-.325-.193-.486-.289-.16-.1-.316-.208-.472-.312-.152-.114-.305-.225-.451-.346-.585-.48-1.122-1.039-1.507-1.698a3.853 3.853 0 01-.19-.357c1.729 6.633 8.15 11.115 15.133 10.232.652-.376 1.103-.876 1.458-1.386v.001zM27.637 18.552a9.564 9.564 0 01-.843.822 12.32 12.32 0 01-1.88 1.342c-.381.222-.771.424-1.167.61a14.75 14.75 0 01-.305 1.322 12.329 12.329 0 01-.83 2.16c-.174.35-.37.692-.588 1.023a8.327 8.327 0 01-.725.955c-.268.3-.675.74-1.024.955a13.868 13.868 0 008.802-11.413c-.163.465-.426.889-.697 1.29a8.344 8.344 0 01-.743.935z" fill="currentColor"/></symbol><symbol fill="none" viewBox="0 0 20 20" id="plus" xmlns="http://www.w3.org/2000/svg"><path d="M10 1v18M1 10h18" stroke="currentColor" stroke-width="2" stroke-linecap="round" stroke-linejoin="round"/></symbol><symbol fill="none" viewBox="0 0 9 16" id="right-chevron" xmlns="http://www.w3.org/2000/svg"><path d="M1 15l7-7-7-7" stroke="currentColor" stroke-width="2" stroke-linecap="round" stroke-linejoin="round"/></symbol></svg>